<svg width="719" height="71" viewBox="0 0 719 71" fill="none" xmlns="http://www.w3.org/2000/svg">
<path fill-rule="evenodd" clip-rule="evenodd" d="M2.00115 67.9996C0.680091 67.9996 -0.278048 66.7415 0.0730986 65.4679L16.941 4.29138C17.662 1.6762 20.722 0.522064 22.9905 2.00963L45.1854 16.5637C46.5154 17.4358 48.2356 17.4372 49.567 16.5671L71.856 2.00164C74.1266 0.517876 77.1842 1.67628 77.9017 4.29205L94.6814 65.4705C95.0305 66.7435 94.0726 67.9996 92.7526 67.9996H71.3294C75.2293 63.4841 77.3751 57.7167 77.3751 51.7502V51.0539C77.3751 45.2178 75.2521 39.5809 71.4023 35.1946L68.6529 21.3943C68.4914 20.5835 67.7797 19.9996 66.9529 19.9996C66.5778 19.9996 66.2129 20.1212 65.9128 20.3462L55.5469 28.1207C54.8087 28.6743 53.8539 28.8507 52.9666 28.5971C49.312 27.553 45.4381 27.553 41.7835 28.5971C40.8962 28.8507 39.9414 28.6743 39.2032 28.1207L28.8327 20.3428C28.5357 20.12 28.1743 19.9996 27.803 19.9996C26.9755 19.9996 26.2658 20.59 26.1153 21.4036L23.4479 35.8241C19.556 39.7817 17.3751 45.1101 17.3751 50.6607V51.9798C17.3751 57.8002 19.4572 63.4287 23.245 67.8479L23.3751 67.9996H2.00115Z" fill="#29E154"/>
<path d="M36.375 56H42.375V42H37.2841L36.375 56ZM58.375 56H52.375V42H57.4659L58.375 56Z" fill="black"/>
<path fill-rule="evenodd" clip-rule="evenodd" d="M35.308 57H43.375V41H36.3469L35.308 57ZM51.375 57H59.442L58.4031 41H51.375V57ZM41.375 56H36.375L37.2841 42H42.375V56H41.375ZM58.3101 55L58.375 56H57.3729H53.375H52.375V42H57.4659L58.3101 55Z" fill="white"/>
<mask id="path-4-outside-1_4_59" maskUnits="userSpaceOnUse" x="112.375" y="12" width="600" height="59" fill="black">
<rect fill="white" x="112.375" y="12" width="600" height="59"/>
<path d="M113.583 57V14.3333H121.313V50.5208H140.104V57H113.583ZM160.438 57.625C157.313 57.625 154.604 56.9375 152.313 55.5625C150.021 54.1875 148.243 52.2639 146.979 49.7917C145.729 47.3194 145.104 44.4305 145.104 41.125C145.104 37.8194 145.729 34.9236 146.979 32.4375C148.243 29.9514 150.021 28.0208 152.313 26.6458C154.604 25.2708 157.313 24.5833 160.438 24.5833C163.563 24.5833 166.271 25.2708 168.563 26.6458C170.854 28.0208 172.625 29.9514 173.875 32.4375C175.139 34.9236 175.771 37.8194 175.771 41.125C175.771 44.4305 175.139 47.3194 173.875 49.7917C172.625 52.2639 170.854 54.1875 168.563 55.5625C166.271 56.9375 163.563 57.625 160.438 57.625ZM160.479 51.5833C162.174 51.5833 163.59 51.1181 164.729 50.1875C165.868 49.2431 166.715 47.9792 167.271 46.3958C167.84 44.8125 168.125 43.0486 168.125 41.1042C168.125 39.1458 167.84 37.375 167.271 35.7917C166.715 34.1944 165.868 32.9236 164.729 31.9792C163.59 31.0347 162.174 30.5625 160.479 30.5625C158.743 30.5625 157.299 31.0347 156.146 31.9792C155.007 32.9236 154.153 34.1944 153.583 35.7917C153.028 37.375 152.75 39.1458 152.75 41.1042C152.75 43.0486 153.028 44.8125 153.583 46.3958C154.153 47.9792 155.007 49.2431 156.146 50.1875C157.299 51.1181 158.743 51.5833 160.479 51.5833ZM189.714 38.25V57H182.172V25H189.38V30.4375H189.755C190.491 28.6458 191.665 27.2222 193.276 26.1666C194.901 25.1111 196.908 24.5833 199.297 24.5833C201.505 24.5833 203.429 25.0555 205.068 26C206.721 26.9444 207.998 28.3125 208.901 30.1042C209.818 31.8958 210.269 34.0694 210.255 36.625V57H202.714V37.7917C202.714 35.6528 202.158 33.9792 201.047 32.7708C199.95 31.5625 198.429 30.9583 196.484 30.9583C195.165 30.9583 193.991 31.25 192.964 31.8333C191.95 32.4028 191.151 33.2292 190.568 34.3125C189.998 35.3958 189.714 36.7083 189.714 38.25ZM231.839 69.6667C229.13 69.6667 226.804 69.2986 224.859 68.5625C222.915 67.8403 221.352 66.8681 220.172 65.6458C218.991 64.4236 218.172 63.0694 217.714 61.5833L224.505 59.9375C224.811 60.5625 225.255 61.1806 225.839 61.7917C226.422 62.4167 227.207 62.9306 228.193 63.3333C229.193 63.75 230.45 63.9583 231.964 63.9583C234.102 63.9583 235.873 63.4375 237.276 62.3958C238.679 61.3681 239.38 59.6736 239.38 57.3125V51.25H239.005C238.616 52.0278 238.047 52.8264 237.297 53.6458C236.561 54.4653 235.582 55.1528 234.359 55.7083C233.151 56.2639 231.63 56.5417 229.797 56.5417C227.339 56.5417 225.109 55.9653 223.109 54.8125C221.123 53.6458 219.54 51.9097 218.359 49.6042C217.193 47.2847 216.609 44.3819 216.609 40.8958C216.609 37.3819 217.193 34.4167 218.359 32C219.54 29.5694 221.13 27.7292 223.13 26.4791C225.13 25.2153 227.359 24.5833 229.818 24.5833C231.693 24.5833 233.234 24.9028 234.443 25.5416C235.665 26.1666 236.637 26.9236 237.359 27.8125C238.082 28.6875 238.63 29.5139 239.005 30.2917H239.422V25H246.859V57.5208C246.859 60.2569 246.207 62.5208 244.901 64.3125C243.596 66.1042 241.811 67.4445 239.547 68.3333C237.283 69.2222 234.714 69.6667 231.839 69.6667ZM231.901 50.625C233.498 50.625 234.859 50.2361 235.984 49.4583C237.109 48.6806 237.964 47.5625 238.547 46.1042C239.13 44.6458 239.422 42.8958 239.422 40.8542C239.422 38.8403 239.13 37.0764 238.547 35.5625C237.977 34.0486 237.13 32.875 236.005 32.0417C234.894 31.1944 233.526 30.7708 231.901 30.7708C230.221 30.7708 228.818 31.2083 227.693 32.0833C226.568 32.9583 225.721 34.1597 225.151 35.6875C224.582 37.2014 224.297 38.9236 224.297 40.8542C224.297 42.8125 224.582 44.5278 225.151 46C225.734 47.4583 226.589 48.5972 227.714 49.4167C228.852 50.2222 230.248 50.625 231.901 50.625ZM291.443 28.7292H283.651C283.429 27.4514 283.019 26.3194 282.422 25.3333C281.825 24.3333 281.082 23.4861 280.193 22.7916C279.304 22.0972 278.29 21.5764 277.151 21.2291C276.026 20.868 274.811 20.6875 273.505 20.6875C271.186 20.6875 269.13 21.2708 267.339 22.4375C265.547 23.5903 264.144 25.2847 263.13 27.5208C262.116 29.743 261.609 32.4583 261.609 35.6667C261.609 38.9305 262.116 41.6805 263.13 43.9167C264.158 46.1389 265.561 47.8194 267.339 48.9583C269.13 50.0833 271.179 50.6458 273.484 50.6458C274.762 50.6458 275.957 50.4792 277.068 50.1458C278.193 49.7986 279.2 49.2917 280.089 48.625C280.991 47.9583 281.748 47.1389 282.359 46.1667C282.984 45.1944 283.415 44.0833 283.651 42.8333L291.443 42.875C291.151 44.9028 290.519 46.8056 289.547 48.5833C288.589 50.3611 287.332 51.9306 285.776 53.2917C284.221 54.6389 282.401 55.6944 280.318 56.4583C278.234 57.2083 275.922 57.5833 273.38 57.5833C269.63 57.5833 266.283 56.7153 263.339 54.9792C260.394 53.2431 258.075 50.7361 256.38 47.4583C254.686 44.1805 253.839 40.25 253.839 35.6667C253.839 31.0694 254.693 27.1389 256.401 23.875C258.109 20.5972 260.436 18.0903 263.38 16.3541C266.325 14.618 269.658 13.75 273.38 13.75C275.755 13.75 277.964 14.0833 280.005 14.75C282.047 15.4166 283.866 16.3958 285.464 17.6875C287.061 18.9653 288.373 20.5347 289.401 22.3958C290.443 24.243 291.123 26.3542 291.443 28.7292ZM307.396 57.6458C305.368 57.6458 303.542 57.2847 301.917 56.5625C300.306 55.8264 299.028 54.7431 298.083 53.3125C297.153 51.8819 296.688 50.1181 296.688 48.0208C296.688 46.2153 297.021 44.7222 297.688 43.5417C298.354 42.3611 299.264 41.4167 300.417 40.7083C301.57 40 302.868 39.4653 304.313 39.1042C305.771 38.7292 307.278 38.4583 308.833 38.2917C310.708 38.0972 312.229 37.9236 313.396 37.7708C314.563 37.6042 315.41 37.3542 315.938 37.0208C316.479 36.6736 316.75 36.1389 316.75 35.4167V35.2917C316.75 33.7222 316.285 32.5069 315.354 31.6458C314.424 30.7847 313.083 30.3542 311.333 30.3542C309.486 30.3542 308.021 30.7569 306.938 31.5625C305.868 32.368 305.146 33.3194 304.771 34.4167L297.729 33.4167C298.285 31.4722 299.201 29.8472 300.479 28.5416C301.757 27.2222 303.32 26.2361 305.167 25.5833C307.014 24.9166 309.056 24.5833 311.292 24.5833C312.833 24.5833 314.368 24.7639 315.896 25.125C317.424 25.4861 318.82 26.0833 320.083 26.9166C321.347 27.7361 322.361 28.8542 323.125 30.2708C323.903 31.6875 324.292 33.4583 324.292 35.5833V57H317.042V52.6042H316.792C316.333 53.4931 315.688 54.3264 314.854 55.1042C314.035 55.8681 313 56.4861 311.75 56.9583C310.514 57.4167 309.063 57.6458 307.396 57.6458ZM309.354 52.1042C310.868 52.1042 312.181 51.8056 313.292 51.2083C314.403 50.5972 315.257 49.7917 315.854 48.7917C316.465 47.7917 316.771 46.7014 316.771 45.5208V41.75C316.535 41.9444 316.132 42.125 315.563 42.2917C315.007 42.4583 314.382 42.6042 313.688 42.7292C312.993 42.8542 312.306 42.9653 311.625 43.0625C310.945 43.1597 310.354 43.243 309.854 43.3125C308.729 43.4653 307.722 43.7153 306.833 44.0625C305.945 44.4097 305.243 44.8958 304.729 45.5208C304.215 46.1319 303.958 46.9236 303.958 47.8958C303.958 49.2847 304.465 50.3333 305.479 51.0417C306.493 51.75 307.785 52.1042 309.354 52.1042ZM347.854 25V30.8333H329.458V25H347.854ZM334 17.3333H341.542V47.375C341.542 48.3889 341.695 49.1667 342 49.7083C342.32 50.2361 342.736 50.5972 343.25 50.7917C343.764 50.9861 344.333 51.0833 344.958 51.0833C345.431 51.0833 345.861 51.0486 346.25 50.9792C346.653 50.9097 346.958 50.8472 347.167 50.7917L348.438 56.6875C348.035 56.8264 347.458 56.9792 346.708 57.1458C345.972 57.3125 345.07 57.4097 344 57.4375C342.111 57.4931 340.41 57.2083 338.896 56.5833C337.382 55.9444 336.181 54.9583 335.292 53.625C334.417 52.2917 333.986 50.625 334 48.625V17.3333ZM372.526 36.125V42.3333H353.318V36.125H372.526ZM407.688 14.3333H415.417V42.2083C415.417 45.2639 414.695 47.9514 413.25 50.2708C411.82 52.5903 409.806 54.4028 407.208 55.7083C404.611 57 401.577 57.6458 398.104 57.6458C394.618 57.6458 391.577 57 388.979 55.7083C386.382 54.4028 384.368 52.5903 382.938 50.2708C381.507 47.9514 380.792 45.2639 380.792 42.2083V14.3333H388.521V41.5625C388.521 43.3403 388.91 44.9236 389.688 46.3125C390.479 47.7014 391.59 48.7917 393.021 49.5833C394.452 50.3611 396.146 50.75 398.104 50.75C400.063 50.75 401.757 50.3611 403.188 49.5833C404.632 48.7917 405.743 47.7014 406.521 46.3125C407.299 44.9236 407.688 43.3403 407.688 41.5625V14.3333ZM458.88 14.3333V57H452.005L431.901 27.9375H431.547V57H423.818V14.3333H430.735L450.818 43.4167H451.193V14.3333H458.88ZM505.427 35.6667C505.427 40.2639 504.566 44.2014 502.844 47.4792C501.136 50.7431 498.802 53.2431 495.844 54.9792C492.9 56.7153 489.559 57.5833 485.823 57.5833C482.087 57.5833 478.74 56.7153 475.781 54.9792C472.837 53.2292 470.504 50.7222 468.781 47.4583C467.073 44.1805 466.219 40.25 466.219 35.6667C466.219 31.0694 467.073 27.1389 468.781 23.875C470.504 20.5972 472.837 18.0903 475.781 16.3541C478.74 14.618 482.087 13.75 485.823 13.75C489.559 13.75 492.9 14.618 495.844 16.3541C498.802 18.0903 501.136 20.5972 502.844 23.875C504.566 27.1389 505.427 31.0694 505.427 35.6667ZM497.656 35.6667C497.656 32.4305 497.15 29.7014 496.136 27.4791C495.136 25.243 493.747 23.5555 491.969 22.4166C490.191 21.2639 488.143 20.6875 485.823 20.6875C483.504 20.6875 481.455 21.2639 479.677 22.4166C477.899 23.5555 476.504 25.243 475.49 27.4791C474.49 29.7014 473.99 32.4305 473.99 35.6667C473.99 38.9028 474.49 41.6389 475.49 43.875C476.504 46.0972 477.899 47.7847 479.677 48.9375C481.455 50.0764 483.504 50.6458 485.823 50.6458C488.143 50.6458 490.191 50.0764 491.969 48.9375C493.747 47.7847 495.136 46.0972 496.136 43.875C497.15 41.6389 497.656 38.9028 497.656 35.6667ZM531.797 32.5625V38.7708H512.589V32.5625H531.797ZM540.063 57V14.3333H556.396C559.479 14.3333 562.042 14.8194 564.084 15.7916C566.139 16.75 567.674 18.0625 568.688 19.7291C569.716 21.3958 570.229 23.2847 570.229 25.3958C570.229 27.1319 569.896 28.618 569.229 29.8542C568.563 31.0764 567.667 32.0694 566.542 32.8333C565.417 33.5972 564.16 34.1458 562.771 34.4792V34.8958C564.285 34.9792 565.736 35.4444 567.125 36.2917C568.528 37.125 569.674 38.3055 570.563 39.8333C571.452 41.3611 571.896 43.2083 571.896 45.375C571.896 47.5833 571.361 49.5694 570.292 51.3333C569.222 53.0833 567.611 54.4653 565.459 55.4792C563.306 56.4931 560.597 57 557.334 57H540.063ZM547.792 50.5417H556.104C558.91 50.5417 560.931 50.0069 562.167 48.9375C563.417 47.8542 564.042 46.4653 564.042 44.7708C564.042 43.5069 563.729 42.368 563.104 41.3542C562.479 40.3264 561.591 39.5208 560.438 38.9375C559.285 38.3403 557.91 38.0417 556.313 38.0417H547.792V50.5417ZM547.792 32.4792H555.438C556.771 32.4792 557.972 32.2361 559.042 31.75C560.111 31.25 560.952 30.5486 561.563 29.6458C562.188 28.7292 562.5 27.6458 562.5 26.3958C562.5 24.743 561.917 23.3819 560.75 22.3125C559.597 21.243 557.882 20.7083 555.604 20.7083H547.792V32.4792ZM592.453 57.625C589.245 57.625 586.474 56.9583 584.141 55.625C581.821 54.2778 580.037 52.375 578.787 49.9167C577.537 47.4444 576.912 44.5347 576.912 41.1875C576.912 37.8958 577.537 35.0069 578.787 32.5208C580.051 30.0208 581.814 28.0764 584.078 26.6875C586.342 25.2847 589.002 24.5833 592.058 24.5833C594.03 24.5833 595.891 24.9028 597.641 25.5416C599.405 26.1666 600.96 27.1389 602.308 28.4583C603.669 29.7778 604.738 31.4583 605.516 33.5C606.294 35.5278 606.683 37.9444 606.683 40.75V43.0625H580.453V37.9792H599.453C599.44 36.5347 599.127 35.25 598.516 34.125C597.905 32.9861 597.051 32.0903 595.953 31.4375C594.87 30.7847 593.606 30.4583 592.162 30.4583C590.62 30.4583 589.266 30.8333 588.099 31.5833C586.933 32.3194 586.023 33.2917 585.37 34.5C584.731 35.6944 584.405 37.0069 584.391 38.4375V42.875C584.391 44.7361 584.731 46.3333 585.412 47.6667C586.092 48.9861 587.044 50 588.266 50.7083C589.488 51.4028 590.919 51.75 592.558 51.75C593.655 51.75 594.648 51.5972 595.537 51.2917C596.426 50.9722 597.196 50.5069 597.849 49.8958C598.502 49.2847 598.995 48.5278 599.328 47.625L606.37 48.4167C605.926 50.2778 605.078 51.9028 603.828 53.2917C602.592 54.6667 601.009 55.7361 599.078 56.5C597.148 57.25 594.94 57.625 592.453 57.625ZM620.604 38.25V57H613.063V25H620.271V30.4375H620.646C621.382 28.6458 622.556 27.2222 624.167 26.1666C625.792 25.1111 627.799 24.5833 630.188 24.5833C632.396 24.5833 634.32 25.0555 635.959 26C637.611 26.9444 638.889 28.3125 639.792 30.1042C640.709 31.8958 641.16 34.0694 641.146 36.625V57H633.604V37.7917C633.604 35.6528 633.049 33.9792 631.938 32.7708C630.841 31.5625 629.32 30.9583 627.375 30.9583C626.056 30.9583 624.882 31.25 623.854 31.8333C622.841 32.4028 622.042 33.2292 621.459 34.3125C620.889 35.3958 620.604 36.7083 620.604 38.25ZM662.771 57.625C659.577 57.625 656.834 56.9236 654.542 55.5208C652.264 54.1181 650.507 52.1806 649.271 49.7083C648.049 47.2222 647.438 44.3611 647.438 41.125C647.438 37.875 648.063 35.0069 649.313 32.5208C650.563 30.0208 652.327 28.0764 654.604 26.6875C656.896 25.2847 659.604 24.5833 662.729 24.5833C665.327 24.5833 667.625 25.0625 669.625 26.0208C671.639 26.9653 673.243 28.3055 674.438 30.0417C675.632 31.7639 676.313 33.7778 676.479 36.0833H669.271C668.979 34.5417 668.285 33.2569 667.188 32.2292C666.104 31.1875 664.653 30.6667 662.834 30.6667C661.292 30.6667 659.938 31.0833 658.771 31.9167C657.604 32.7361 656.695 33.9167 656.042 35.4583C655.403 37 655.084 38.8472 655.084 41C655.084 43.1805 655.403 45.0555 656.042 46.625C656.681 48.1806 657.577 49.3819 658.729 50.2292C659.896 51.0625 661.264 51.4792 662.834 51.4792C663.945 51.4792 664.938 51.2708 665.813 50.8542C666.702 50.4236 667.445 49.8056 668.042 49C668.639 48.1944 669.049 47.2153 669.271 46.0625H676.479C676.299 48.3264 675.632 50.3333 674.479 52.0833C673.327 53.8194 671.757 55.1806 669.771 56.1667C667.785 57.1389 665.452 57.625 662.771 57.625ZM690.214 38.25V57H682.672V14.3333H690.047V30.4375H690.422C691.172 28.6319 692.332 27.2083 693.901 26.1666C695.485 25.1111 697.499 24.5833 699.943 24.5833C702.165 24.5833 704.103 25.0486 705.756 25.9791C707.408 26.9097 708.686 28.2708 709.589 30.0625C710.506 31.8542 710.964 34.0417 710.964 36.625V57H703.422V37.7917C703.422 35.6389 702.867 33.9653 701.756 32.7708C700.658 31.5625 699.117 30.9583 697.131 30.9583C695.797 30.9583 694.603 31.25 693.547 31.8333C692.506 32.4028 691.686 33.2292 691.089 34.3125C690.506 35.3958 690.214 36.7083 690.214 38.25Z"/>
</mask>
<path d="M113.583 57V14.3333H121.313V50.5208H140.104V57H113.583ZM160.438 57.625C157.313 57.625 154.604 56.9375 152.313 55.5625C150.021 54.1875 148.243 52.2639 146.979 49.7917C145.729 47.3194 145.104 44.4305 145.104 41.125C145.104 37.8194 145.729 34.9236 146.979 32.4375C148.243 29.9514 150.021 28.0208 152.313 26.6458C154.604 25.2708 157.313 24.5833 160.438 24.5833C163.563 24.5833 166.271 25.2708 168.563 26.6458C170.854 28.0208 172.625 29.9514 173.875 32.4375C175.139 34.9236 175.771 37.8194 175.771 41.125C175.771 44.4305 175.139 47.3194 173.875 49.7917C172.625 52.2639 170.854 54.1875 168.563 55.5625C166.271 56.9375 163.563 57.625 160.438 57.625ZM160.479 51.5833C162.174 51.5833 163.59 51.1181 164.729 50.1875C165.868 49.2431 166.715 47.9792 167.271 46.3958C167.84 44.8125 168.125 43.0486 168.125 41.1042C168.125 39.1458 167.84 37.375 167.271 35.7917C166.715 34.1944 165.868 32.9236 164.729 31.9792C163.59 31.0347 162.174 30.5625 160.479 30.5625C158.743 30.5625 157.299 31.0347 156.146 31.9792C155.007 32.9236 154.153 34.1944 153.583 35.7917C153.028 37.375 152.75 39.1458 152.75 41.1042C152.75 43.0486 153.028 44.8125 153.583 46.3958C154.153 47.9792 155.007 49.2431 156.146 50.1875C157.299 51.1181 158.743 51.5833 160.479 51.5833ZM189.714 38.25V57H182.172V25H189.38V30.4375H189.755C190.491 28.6458 191.665 27.2222 193.276 26.1666C194.901 25.1111 196.908 24.5833 199.297 24.5833C201.505 24.5833 203.429 25.0555 205.068 26C206.721 26.9444 207.998 28.3125 208.901 30.1042C209.818 31.8958 210.269 34.0694 210.255 36.625V57H202.714V37.7917C202.714 35.6528 202.158 33.9792 201.047 32.7708C199.95 31.5625 198.429 30.9583 196.484 30.9583C195.165 30.9583 193.991 31.25 192.964 31.8333C191.95 32.4028 191.151 33.2292 190.568 34.3125C189.998 35.3958 189.714 36.7083 189.714 38.25ZM231.839 69.6667C229.13 69.6667 226.804 69.2986 224.859 68.5625C222.915 67.8403 221.352 66.8681 220.172 65.6458C218.991 64.4236 218.172 63.0694 217.714 61.5833L224.505 59.9375C224.811 60.5625 225.255 61.1806 225.839 61.7917C226.422 62.4167 227.207 62.9306 228.193 63.3333C229.193 63.75 230.45 63.9583 231.964 63.9583C234.102 63.9583 235.873 63.4375 237.276 62.3958C238.679 61.3681 239.38 59.6736 239.38 57.3125V51.25H239.005C238.616 52.0278 238.047 52.8264 237.297 53.6458C236.561 54.4653 235.582 55.1528 234.359 55.7083C233.151 56.2639 231.63 56.5417 229.797 56.5417C227.339 56.5417 225.109 55.9653 223.109 54.8125C221.123 53.6458 219.54 51.9097 218.359 49.6042C217.193 47.2847 216.609 44.3819 216.609 40.8958C216.609 37.3819 217.193 34.4167 218.359 32C219.54 29.5694 221.13 27.7292 223.13 26.4791C225.13 25.2153 227.359 24.5833 229.818 24.5833C231.693 24.5833 233.234 24.9028 234.443 25.5416C235.665 26.1666 236.637 26.9236 237.359 27.8125C238.082 28.6875 238.63 29.5139 239.005 30.2917H239.422V25H246.859V57.5208C246.859 60.2569 246.207 62.5208 244.901 64.3125C243.596 66.1042 241.811 67.4445 239.547 68.3333C237.283 69.2222 234.714 69.6667 231.839 69.6667ZM231.901 50.625C233.498 50.625 234.859 50.2361 235.984 49.4583C237.109 48.6806 237.964 47.5625 238.547 46.1042C239.13 44.6458 239.422 42.8958 239.422 40.8542C239.422 38.8403 239.13 37.0764 238.547 35.5625C237.977 34.0486 237.13 32.875 236.005 32.0417C234.894 31.1944 233.526 30.7708 231.901 30.7708C230.221 30.7708 228.818 31.2083 227.693 32.0833C226.568 32.9583 225.721 34.1597 225.151 35.6875C224.582 37.2014 224.297 38.9236 224.297 40.8542C224.297 42.8125 224.582 44.5278 225.151 46C225.734 47.4583 226.589 48.5972 227.714 49.4167C228.852 50.2222 230.248 50.625 231.901 50.625ZM291.443 28.7292H283.651C283.429 27.4514 283.019 26.3194 282.422 25.3333C281.825 24.3333 281.082 23.4861 280.193 22.7916C279.304 22.0972 278.29 21.5764 277.151 21.2291C276.026 20.868 274.811 20.6875 273.505 20.6875C271.186 20.6875 269.13 21.2708 267.339 22.4375C265.547 23.5903 264.144 25.2847 263.13 27.5208C262.116 29.743 261.609 32.4583 261.609 35.6667C261.609 38.9305 262.116 41.6805 263.13 43.9167C264.158 46.1389 265.561 47.8194 267.339 48.9583C269.13 50.0833 271.179 50.6458 273.484 50.6458C274.762 50.6458 275.957 50.4792 277.068 50.1458C278.193 49.7986 279.2 49.2917 280.089 48.625C280.991 47.9583 281.748 47.1389 282.359 46.1667C282.984 45.1944 283.415 44.0833 283.651 42.8333L291.443 42.875C291.151 44.9028 290.519 46.8056 289.547 48.5833C288.589 50.3611 287.332 51.9306 285.776 53.2917C284.221 54.6389 282.401 55.6944 280.318 56.4583C278.234 57.2083 275.922 57.5833 273.38 57.5833C269.63 57.5833 266.283 56.7153 263.339 54.9792C260.394 53.2431 258.075 50.7361 256.38 47.4583C254.686 44.1805 253.839 40.25 253.839 35.6667C253.839 31.0694 254.693 27.1389 256.401 23.875C258.109 20.5972 260.436 18.0903 263.38 16.3541C266.325 14.618 269.658 13.75 273.38 13.75C275.755 13.75 277.964 14.0833 280.005 14.75C282.047 15.4166 283.866 16.3958 285.464 17.6875C287.061 18.9653 288.373 20.5347 289.401 22.3958C290.443 24.243 291.123 26.3542 291.443 28.7292ZM307.396 57.6458C305.368 57.6458 303.542 57.2847 301.917 56.5625C300.306 55.8264 299.028 54.7431 298.083 53.3125C297.153 51.8819 296.688 50.1181 296.688 48.0208C296.688 46.2153 297.021 44.7222 297.688 43.5417C298.354 42.3611 299.264 41.4167 300.417 40.7083C301.57 40 302.868 39.4653 304.313 39.1042C305.771 38.7292 307.278 38.4583 308.833 38.2917C310.708 38.0972 312.229 37.9236 313.396 37.7708C314.563 37.6042 315.41 37.3542 315.938 37.0208C316.479 36.6736 316.75 36.1389 316.75 35.4167V35.2917C316.75 33.7222 316.285 32.5069 315.354 31.6458C314.424 30.7847 313.083 30.3542 311.333 30.3542C309.486 30.3542 308.021 30.7569 306.938 31.5625C305.868 32.368 305.146 33.3194 304.771 34.4167L297.729 33.4167C298.285 31.4722 299.201 29.8472 300.479 28.5416C301.757 27.2222 303.32 26.2361 305.167 25.5833C307.014 24.9166 309.056 24.5833 311.292 24.5833C312.833 24.5833 314.368 24.7639 315.896 25.125C317.424 25.4861 318.82 26.0833 320.083 26.9166C321.347 27.7361 322.361 28.8542 323.125 30.2708C323.903 31.6875 324.292 33.4583 324.292 35.5833V57H317.042V52.6042H316.792C316.333 53.4931 315.688 54.3264 314.854 55.1042C314.035 55.8681 313 56.4861 311.75 56.9583C310.514 57.4167 309.063 57.6458 307.396 57.6458ZM309.354 52.1042C310.868 52.1042 312.181 51.8056 313.292 51.2083C314.403 50.5972 315.257 49.7917 315.854 48.7917C316.465 47.7917 316.771 46.7014 316.771 45.5208V41.75C316.535 41.9444 316.132 42.125 315.563 42.2917C315.007 42.4583 314.382 42.6042 313.688 42.7292C312.993 42.8542 312.306 42.9653 311.625 43.0625C310.945 43.1597 310.354 43.243 309.854 43.3125C308.729 43.4653 307.722 43.7153 306.833 44.0625C305.945 44.4097 305.243 44.8958 304.729 45.5208C304.215 46.1319 303.958 46.9236 303.958 47.8958C303.958 49.2847 304.465 50.3333 305.479 51.0417C306.493 51.75 307.785 52.1042 309.354 52.1042ZM347.854 25V30.8333H329.458V25H347.854ZM334 17.3333H341.542V47.375C341.542 48.3889 341.695 49.1667 342 49.7083C342.32 50.2361 342.736 50.5972 343.25 50.7917C343.764 50.9861 344.333 51.0833 344.958 51.0833C345.431 51.0833 345.861 51.0486 346.25 50.9792C346.653 50.9097 346.958 50.8472 347.167 50.7917L348.438 56.6875C348.035 56.8264 347.458 56.9792 346.708 57.1458C345.972 57.3125 345.07 57.4097 344 57.4375C342.111 57.4931 340.41 57.2083 338.896 56.5833C337.382 55.9444 336.181 54.9583 335.292 53.625C334.417 52.2917 333.986 50.625 334 48.625V17.3333ZM372.526 36.125V42.3333H353.318V36.125H372.526ZM407.688 14.3333H415.417V42.2083C415.417 45.2639 414.695 47.9514 413.25 50.2708C411.82 52.5903 409.806 54.4028 407.208 55.7083C404.611 57 401.577 57.6458 398.104 57.6458C394.618 57.6458 391.577 57 388.979 55.7083C386.382 54.4028 384.368 52.5903 382.938 50.2708C381.507 47.9514 380.792 45.2639 380.792 42.2083V14.3333H388.521V41.5625C388.521 43.3403 388.91 44.9236 389.688 46.3125C390.479 47.7014 391.59 48.7917 393.021 49.5833C394.452 50.3611 396.146 50.75 398.104 50.75C400.063 50.75 401.757 50.3611 403.188 49.5833C404.632 48.7917 405.743 47.7014 406.521 46.3125C407.299 44.9236 407.688 43.3403 407.688 41.5625V14.3333ZM458.88 14.3333V57H452.005L431.901 27.9375H431.547V57H423.818V14.3333H430.735L450.818 43.4167H451.193V14.3333H458.88ZM505.427 35.6667C505.427 40.2639 504.566 44.2014 502.844 47.4792C501.136 50.7431 498.802 53.2431 495.844 54.9792C492.9 56.7153 489.559 57.5833 485.823 57.5833C482.087 57.5833 478.74 56.7153 475.781 54.9792C472.837 53.2292 470.504 50.7222 468.781 47.4583C467.073 44.1805 466.219 40.25 466.219 35.6667C466.219 31.0694 467.073 27.1389 468.781 23.875C470.504 20.5972 472.837 18.0903 475.781 16.3541C478.74 14.618 482.087 13.75 485.823 13.75C489.559 13.75 492.9 14.618 495.844 16.3541C498.802 18.0903 501.136 20.5972 502.844 23.875C504.566 27.1389 505.427 31.0694 505.427 35.6667ZM497.656 35.6667C497.656 32.4305 497.15 29.7014 496.136 27.4791C495.136 25.243 493.747 23.5555 491.969 22.4166C490.191 21.2639 488.143 20.6875 485.823 20.6875C483.504 20.6875 481.455 21.2639 479.677 22.4166C477.899 23.5555 476.504 25.243 475.49 27.4791C474.49 29.7014 473.99 32.4305 473.99 35.6667C473.99 38.9028 474.49 41.6389 475.49 43.875C476.504 46.0972 477.899 47.7847 479.677 48.9375C481.455 50.0764 483.504 50.6458 485.823 50.6458C488.143 50.6458 490.191 50.0764 491.969 48.9375C493.747 47.7847 495.136 46.0972 496.136 43.875C497.15 41.6389 497.656 38.9028 497.656 35.6667ZM531.797 32.5625V38.7708H512.589V32.5625H531.797ZM540.063 57V14.3333H556.396C559.479 14.3333 562.042 14.8194 564.084 15.7916C566.139 16.75 567.674 18.0625 568.688 19.7291C569.716 21.3958 570.229 23.2847 570.229 25.3958C570.229 27.1319 569.896 28.618 569.229 29.8542C568.563 31.0764 567.667 32.0694 566.542 32.8333C565.417 33.5972 564.16 34.1458 562.771 34.4792V34.8958C564.285 34.9792 565.736 35.4444 567.125 36.2917C568.528 37.125 569.674 38.3055 570.563 39.8333C571.452 41.3611 571.896 43.2083 571.896 45.375C571.896 47.5833 571.361 49.5694 570.292 51.3333C569.222 53.0833 567.611 54.4653 565.459 55.4792C563.306 56.4931 560.597 57 557.334 57H540.063ZM547.792 50.5417H556.104C558.91 50.5417 560.931 50.0069 562.167 48.9375C563.417 47.8542 564.042 46.4653 564.042 44.7708C564.042 43.5069 563.729 42.368 563.104 41.3542C562.479 40.3264 561.591 39.5208 560.438 38.9375C559.285 38.3403 557.91 38.0417 556.313 38.0417H547.792V50.5417ZM547.792 32.4792H555.438C556.771 32.4792 557.972 32.2361 559.042 31.75C560.111 31.25 560.952 30.5486 561.563 29.6458C562.188 28.7292 562.5 27.6458 562.5 26.3958C562.5 24.743 561.917 23.3819 560.75 22.3125C559.597 21.243 557.882 20.7083 555.604 20.7083H547.792V32.4792ZM592.453 57.625C589.245 57.625 586.474 56.9583 584.141 55.625C581.821 54.2778 580.037 52.375 578.787 49.9167C577.537 47.4444 576.912 44.5347 576.912 41.1875C576.912 37.8958 577.537 35.0069 578.787 32.5208C580.051 30.0208 581.814 28.0764 584.078 26.6875C586.342 25.2847 589.002 24.5833 592.058 24.5833C594.03 24.5833 595.891 24.9028 597.641 25.5416C599.405 26.1666 600.96 27.1389 602.308 28.4583C603.669 29.7778 604.738 31.4583 605.516 33.5C606.294 35.5278 606.683 37.9444 606.683 40.75V43.0625H580.453V37.9792H599.453C599.44 36.5347 599.127 35.25 598.516 34.125C597.905 32.9861 597.051 32.0903 595.953 31.4375C594.87 30.7847 593.606 30.4583 592.162 30.4583C590.62 30.4583 589.266 30.8333 588.099 31.5833C586.933 32.3194 586.023 33.2917 585.37 34.5C584.731 35.6944 584.405 37.0069 584.391 38.4375V42.875C584.391 44.7361 584.731 46.3333 585.412 47.6667C586.092 48.9861 587.044 50 588.266 50.7083C589.488 51.4028 590.919 51.75 592.558 51.75C593.655 51.75 594.648 51.5972 595.537 51.2917C596.426 50.9722 597.196 50.5069 597.849 49.8958C598.502 49.2847 598.995 48.5278 599.328 47.625L606.37 48.4167C605.926 50.2778 605.078 51.9028 603.828 53.2917C602.592 54.6667 601.009 55.7361 599.078 56.5C597.148 57.25 594.94 57.625 592.453 57.625ZM620.604 38.25V57H613.063V25H620.271V30.4375H620.646C621.382 28.6458 622.556 27.2222 624.167 26.1666C625.792 25.1111 627.799 24.5833 630.188 24.5833C632.396 24.5833 634.32 25.0555 635.959 26C637.611 26.9444 638.889 28.3125 639.792 30.1042C640.709 31.8958 641.16 34.0694 641.146 36.625V57H633.604V37.7917C633.604 35.6528 633.049 33.9792 631.938 32.7708C630.841 31.5625 629.32 30.9583 627.375 30.9583C626.056 30.9583 624.882 31.25 623.854 31.8333C622.841 32.4028 622.042 33.2292 621.459 34.3125C620.889 35.3958 620.604 36.7083 620.604 38.25ZM662.771 57.625C659.577 57.625 656.834 56.9236 654.542 55.5208C652.264 54.1181 650.507 52.1806 649.271 49.7083C648.049 47.2222 647.438 44.3611 647.438 41.125C647.438 37.875 648.063 35.0069 649.313 32.5208C650.563 30.0208 652.327 28.0764 654.604 26.6875C656.896 25.2847 659.604 24.5833 662.729 24.5833C665.327 24.5833 667.625 25.0625 669.625 26.0208C671.639 26.9653 673.243 28.3055 674.438 30.0417C675.632 31.7639 676.313 33.7778 676.479 36.0833H669.271C668.979 34.5417 668.285 33.2569 667.188 32.2292C666.104 31.1875 664.653 30.6667 662.834 30.6667C661.292 30.6667 659.938 31.0833 658.771 31.9167C657.604 32.7361 656.695 33.9167 656.042 35.4583C655.403 37 655.084 38.8472 655.084 41C655.084 43.1805 655.403 45.0555 656.042 46.625C656.681 48.1806 657.577 49.3819 658.729 50.2292C659.896 51.0625 661.264 51.4792 662.834 51.4792C663.945 51.4792 664.938 51.2708 665.813 50.8542C666.702 50.4236 667.445 49.8056 668.042 49C668.639 48.1944 669.049 47.2153 669.271 46.0625H676.479C676.299 48.3264 675.632 50.3333 674.479 52.0833C673.327 53.8194 671.757 55.1806 669.771 56.1667C667.785 57.1389 665.452 57.625 662.771 57.625ZM690.214 38.25V57H682.672V14.3333H690.047V30.4375H690.422C691.172 28.6319 692.332 27.2083 693.901 26.1666C695.485 25.1111 697.499 24.5833 699.943 24.5833C702.165 24.5833 704.103 25.0486 705.756 25.9791C707.408 26.9097 708.686 28.2708 709.589 30.0625C710.506 31.8542 710.964 34.0417 710.964 36.625V57H703.422V37.7917C703.422 35.6389 702.867 33.9653 701.756 32.7708C700.658 31.5625 699.117 30.9583 697.131 30.9583C695.797 30.9583 694.603 31.25 693.547 31.8333C692.506 32.4028 691.686 33.2292 691.089 34.3125C690.506 35.3958 690.214 36.7083 690.214 38.25Z" fill="black"/>
<path d="M113.583 57H112.583V58H113.583V57ZM113.583 14.3333V13.3333H112.583V14.3333H113.583ZM121.313 14.3333H122.313V13.3333H121.313V14.3333ZM121.313 50.5208H120.313V51.5208H121.313V50.5208ZM140.104 50.5208H141.104V49.5208H140.104V50.5208ZM140.104 57V58H141.104V57H140.104ZM113.583 57H114.583V14.3333H113.583H112.583V57H113.583ZM113.583 14.3333V15.3333H121.313V14.3333V13.3333H113.583V14.3333ZM121.313 14.3333H120.313V50.5208H121.313H122.313V14.3333H121.313ZM121.313 50.5208V51.5208H140.104V50.5208V49.5208H121.313V50.5208ZM140.104 50.5208H139.104V57H140.104H141.104V50.5208H140.104ZM140.104 57V56H113.583V57V58H140.104V57ZM152.313 55.5625L151.798 56.42L151.798 56.42L152.313 55.5625ZM146.979 49.7917L146.087 50.2429L146.089 50.2469L146.979 49.7917ZM146.979 32.4375L146.088 31.9843L146.086 31.9883L146.979 32.4375ZM152.313 26.6458L152.827 27.5033L152.827 27.5033L152.313 26.6458ZM168.563 26.6458L168.048 27.5033L168.048 27.5033L168.563 26.6458ZM173.875 32.4375L172.982 32.8867L172.984 32.8907L173.875 32.4375ZM173.875 49.7917L172.985 49.3365L172.983 49.3404L173.875 49.7917ZM168.563 55.5625L168.048 54.705L168.048 54.705L168.563 55.5625ZM164.729 50.1875L165.362 50.9619L165.368 50.9573L164.729 50.1875ZM167.271 46.3958L166.33 46.0574L166.327 46.0647L167.271 46.3958ZM167.271 35.7917L166.326 36.1202L166.33 36.1301L167.271 35.7917ZM164.729 31.9792L165.368 31.2094L165.368 31.2094L164.729 31.9792ZM156.146 31.9792L155.512 31.2056L155.508 31.2094L156.146 31.9792ZM153.583 35.7917L152.641 35.4558L152.64 35.4606L153.583 35.7917ZM153.583 46.3958L152.64 46.7269L152.642 46.7343L153.583 46.3958ZM156.146 50.1875L155.507 50.9573L155.518 50.9656L156.146 50.1875ZM160.438 57.625V56.625C157.463 56.625 154.939 55.972 152.827 54.705L152.313 55.5625L151.798 56.42C154.27 57.903 157.162 58.625 160.438 58.625V57.625ZM152.313 55.5625L152.827 54.705C150.702 53.4302 149.052 51.6489 147.87 49.3365L146.979 49.7917L146.089 50.2469C147.434 52.8789 149.339 54.9448 151.798 56.42L152.313 55.5625ZM146.979 49.7917L147.872 49.3404C146.705 47.0327 146.104 44.3038 146.104 41.125H145.104H144.104C144.104 44.5573 144.754 47.6062 146.087 50.2429L146.979 49.7917ZM145.104 41.125H146.104C146.104 37.9463 146.705 35.2096 147.873 32.8867L146.979 32.4375L146.086 31.9883C144.754 34.6376 144.104 37.6925 144.104 41.125H145.104ZM146.979 32.4375L147.871 32.8907C149.053 30.5644 150.704 28.7773 152.827 27.5033L152.313 26.6458L151.798 25.7883C149.338 27.2643 147.433 29.3383 146.088 31.9843L146.979 32.4375ZM152.313 26.6458L152.827 27.5033C154.939 26.2363 157.463 25.5833 160.438 25.5833V24.5833V23.5833C157.162 23.5833 154.27 24.3053 151.798 25.7883L152.313 26.6458ZM160.438 24.5833V25.5833C163.412 25.5833 165.936 26.2363 168.048 27.5033L168.563 26.6458L169.077 25.7883C166.605 24.3053 163.713 23.5833 160.438 23.5833V24.5833ZM168.563 26.6458L168.048 27.5033C170.17 28.7767 171.813 30.5625 172.982 32.8867L173.875 32.4375L174.768 31.9883C173.437 29.3403 171.538 27.2649 169.077 25.7883L168.563 26.6458ZM173.875 32.4375L172.984 32.8907C174.164 35.2126 174.771 37.9479 174.771 41.125H175.771H176.771C176.771 37.691 176.114 34.6346 174.766 31.9843L173.875 32.4375ZM175.771 41.125H174.771C174.771 44.3022 174.164 47.0296 172.985 49.3365L173.875 49.7917L174.765 50.2469C176.114 47.6093 176.771 44.5589 176.771 41.125H175.771ZM173.875 49.7917L172.983 49.3404C171.814 51.6508 170.172 53.4307 168.048 54.705L168.563 55.5625L169.077 56.42C171.537 54.9443 173.436 52.877 174.767 50.2429L173.875 49.7917ZM168.563 55.5625L168.048 54.705C165.936 55.972 163.412 56.625 160.438 56.625V57.625V58.625C163.713 58.625 166.605 57.903 169.077 56.42L168.563 55.5625ZM160.479 51.5833V52.5833C162.367 52.5833 164.018 52.0601 165.362 50.9619L164.729 50.1875L164.096 49.4131C163.163 50.176 161.98 50.5833 160.479 50.5833V51.5833ZM164.729 50.1875L165.368 50.9573C166.664 49.8821 167.607 48.458 168.214 46.7269L167.271 46.3958L166.327 46.0647C165.824 47.5003 165.072 48.604 164.091 49.4177L164.729 50.1875ZM167.271 46.3958L168.212 46.7343C168.826 45.0269 169.125 43.1463 169.125 41.1042H168.125H167.125C167.125 42.9509 166.855 44.5981 166.33 46.0574L167.271 46.3958ZM168.125 41.1042H169.125C169.125 39.049 168.826 37.1613 168.212 35.4532L167.271 35.7917L166.33 36.1301C166.854 37.5887 167.125 39.2426 167.125 41.1042H168.125ZM167.271 35.7917L168.215 35.4631C167.609 33.7188 166.666 32.2861 165.368 31.2094L164.729 31.9792L164.091 32.7489C165.07 33.5611 165.822 34.6701 166.326 36.1202L167.271 35.7917ZM164.729 31.9792L165.368 31.2094C164.023 30.0948 162.371 29.5625 160.479 29.5625V30.5625V31.5625C161.976 31.5625 163.157 31.9746 164.091 32.7489L164.729 31.9792ZM160.479 30.5625V29.5625C158.552 29.5625 156.872 30.0912 155.512 31.2056L156.146 31.9792L156.78 32.7527C157.725 31.9782 158.934 31.5625 160.479 31.5625V30.5625ZM156.146 31.9792L155.508 31.2094C154.211 32.2845 153.262 33.7145 152.641 35.4558L153.583 35.7917L154.525 36.1275C155.043 34.6744 155.803 33.5627 156.784 32.7489L156.146 31.9792ZM153.583 35.7917L152.64 35.4606C152.041 37.1664 151.75 39.0515 151.75 41.1042H152.75H153.75C153.75 39.2401 154.014 37.5836 154.527 36.1227L153.583 35.7917ZM152.75 41.1042H151.75C151.75 43.1438 152.041 45.0218 152.64 46.7269L153.583 46.3958L154.527 46.0647C154.014 44.6032 153.75 42.9534 153.75 41.1042H152.75ZM153.583 46.3958L152.642 46.7343C153.264 48.4623 154.213 49.8837 155.508 50.9573L156.146 50.1875L156.784 49.4177C155.801 48.6024 155.042 47.496 154.524 46.0574L153.583 46.3958ZM156.146 50.1875L155.518 50.9656C156.878 52.0636 158.556 52.5833 160.479 52.5833V51.5833V50.5833C158.931 50.5833 157.719 50.1725 156.774 49.4094L156.146 50.1875ZM189.714 57V58H190.714V57H189.714ZM182.172 57H181.172V58H182.172V57ZM182.172 25V24H181.172V25H182.172ZM189.38 25H190.38V24H189.38V25ZM189.38 30.4375H188.38V31.4375H189.38V30.4375ZM189.755 30.4375V31.4375H190.426L190.68 30.8175L189.755 30.4375ZM193.276 26.1666L192.731 25.328L192.728 25.3302L193.276 26.1666ZM205.068 26L204.568 26.8664L204.572 26.8682L205.068 26ZM208.901 30.1042L208.008 30.5541L208.011 30.5596L208.901 30.1042ZM210.255 36.625L209.255 36.6196V36.625H210.255ZM210.255 57V58H211.255V57H210.255ZM202.714 57H201.714V58H202.714V57ZM201.047 32.7708L200.307 33.4431L200.311 33.4477L201.047 32.7708ZM192.964 31.8333L193.453 32.7052L193.457 32.703L192.964 31.8333ZM190.568 34.3125L189.687 33.8384L189.683 33.8472L190.568 34.3125ZM189.714 38.25H188.714V57H189.714H190.714V38.25H189.714ZM189.714 57V56H182.172V57V58H189.714V57ZM182.172 57H183.172V25H182.172H181.172V57H182.172ZM182.172 25V26H189.38V25V24H182.172V25ZM189.38 25H188.38V30.4375H189.38H190.38V25H189.38ZM189.38 30.4375V31.4375H189.755V30.4375V29.4375H189.38V30.4375ZM189.755 30.4375L190.68 30.8175C191.34 29.2114 192.383 27.9474 193.824 27.0031L193.276 26.1666L192.728 25.3302C190.947 26.497 189.643 28.0802 188.83 30.0575L189.755 30.4375ZM193.276 26.1666L193.821 27.0053C195.25 26.0772 197.056 25.5833 199.297 25.5833V24.5833V23.5833C196.76 23.5833 194.553 24.145 192.731 25.328L193.276 26.1666ZM199.297 24.5833V25.5833C201.36 25.5833 203.105 26.0232 204.568 26.8664L205.068 26L205.567 25.1336C203.753 24.0879 201.651 23.5833 199.297 23.5833V24.5833ZM205.068 26L204.572 26.8682C206.044 27.7099 207.189 28.9279 208.008 30.5541L208.901 30.1042L209.794 29.6542C208.808 27.6971 207.397 26.179 205.564 25.1317L205.068 26ZM208.901 30.1042L208.011 30.5596C208.838 32.1754 209.269 34.1821 209.255 36.6196L210.255 36.625L211.255 36.6304C211.27 33.9568 210.798 31.6163 209.791 29.6487L208.901 30.1042ZM210.255 36.625H209.255V57H210.255H211.255V36.625H210.255ZM210.255 57V56H202.714V57V58H210.255V57ZM202.714 57H203.714V37.7917H202.714H201.714V57H202.714ZM202.714 37.7917H203.714C203.714 35.4802 203.11 33.5373 201.783 32.0939L201.047 32.7708L200.311 33.4477C201.206 34.421 201.714 35.8254 201.714 37.7917H202.714ZM201.047 32.7708L201.787 32.0986C200.464 30.6416 198.652 29.9583 196.484 29.9583V30.9583V31.9583C198.206 31.9583 199.435 32.4833 200.307 33.4431L201.047 32.7708ZM196.484 30.9583V29.9583C195.013 29.9583 193.665 30.2853 192.47 30.9636L192.964 31.8333L193.457 32.703C194.318 32.2147 195.317 31.9583 196.484 31.9583V30.9583ZM192.964 31.8333L192.474 30.9614C191.285 31.6292 190.355 32.5982 189.687 33.8384L190.568 34.3125L191.448 34.7866C191.947 33.8601 192.615 33.1763 193.453 32.7052L192.964 31.8333ZM190.568 34.3125L189.683 33.8472C189.021 35.1065 188.714 36.5874 188.714 38.25H189.714H190.714C190.714 36.8293 190.976 35.6851 191.453 34.7778L190.568 34.3125ZM224.859 68.5625L225.213 67.6273L225.208 67.6251L224.859 68.5625ZM220.172 65.6458L220.891 64.9511L220.891 64.9511L220.172 65.6458ZM217.714 61.5833L217.478 60.6115L216.445 60.8619L216.758 61.878L217.714 61.5833ZM224.505 59.9375L225.404 59.4983L225.051 58.7764L224.27 58.9656L224.505 59.9375ZM225.839 61.7917L226.57 61.1093L226.562 61.1012L225.839 61.7917ZM228.193 63.3333L228.577 62.4102L228.571 62.4076L228.193 63.3333ZM237.276 62.3958L236.685 61.5892L236.68 61.593L237.276 62.3958ZM239.38 51.25H240.38V50.25H239.38V51.25ZM239.005 51.25V50.25H238.387L238.111 50.8028L239.005 51.25ZM237.297 53.6458L236.559 52.9706L236.553 52.9776L237.297 53.6458ZM234.359 55.7083L233.946 54.798L233.942 54.7998L234.359 55.7083ZM223.109 54.8125L222.603 55.6748L222.61 55.6789L223.109 54.8125ZM218.359 49.6042L217.466 50.0535L217.469 50.0599L218.359 49.6042ZM218.359 32L217.46 31.5631L217.459 31.5652L218.359 32ZM223.13 26.4791L223.66 27.3272L223.664 27.3245L223.13 26.4791ZM234.443 25.5416L233.975 26.4258L233.987 26.432L234.443 25.5416ZM237.359 27.8125L236.583 28.4431L236.588 28.449L237.359 27.8125ZM239.005 30.2917L238.105 30.726L238.377 31.2917H239.005V30.2917ZM239.422 30.2917V31.2917H240.422V30.2917H239.422ZM239.422 25V24H238.422V25H239.422ZM246.859 25H247.859V24H246.859V25ZM244.901 64.3125L245.709 64.9014L245.709 64.9014L244.901 64.3125ZM239.547 68.3333L239.912 69.2642L239.912 69.2642L239.547 68.3333ZM235.984 49.4583L235.416 48.6358L235.416 48.6358L235.984 49.4583ZM238.547 35.5625L237.611 35.9146L237.614 35.922L238.547 35.5625ZM236.005 32.0417L235.399 32.8369L235.41 32.8452L236.005 32.0417ZM227.693 32.0833L227.079 31.294L227.079 31.294L227.693 32.0833ZM225.151 35.6875L226.087 36.0396L226.088 36.0367L225.151 35.6875ZM225.151 46L224.218 46.3608L224.223 46.3714L225.151 46ZM227.714 49.4167L227.125 50.225L227.136 50.2331L227.714 49.4167ZM231.839 69.6667V68.6667C229.217 68.6667 227.016 68.3098 225.213 67.6273L224.859 68.5625L224.505 69.4977C226.591 70.2874 229.044 70.6667 231.839 70.6667V69.6667ZM224.859 68.5625L225.208 67.6251C223.373 66.9437 221.947 66.0446 220.891 64.9511L220.172 65.6458L219.453 66.3406C220.758 67.6916 222.457 68.7369 224.511 69.4999L224.859 68.5625ZM220.172 65.6458L220.891 64.9511C219.809 63.8312 219.077 62.6111 218.669 61.2886L217.714 61.5833L216.758 61.878C217.267 63.5278 218.173 65.0161 219.453 66.3406L220.172 65.6458ZM217.714 61.5833L217.949 62.5552L224.741 60.9094L224.505 59.9375L224.27 58.9656L217.478 60.6115L217.714 61.5833ZM224.505 59.9375L223.607 60.3767C223.966 61.1113 224.476 61.8121 225.115 62.4821L225.839 61.7917L226.562 61.1012C226.035 60.549 225.656 60.0137 225.404 59.4983L224.505 59.9375ZM225.839 61.7917L225.108 62.474C225.811 63.2274 226.727 63.8147 227.815 64.2591L228.193 63.3333L228.571 62.4076C227.687 62.0464 227.033 61.606 226.57 61.1094L225.839 61.7917ZM228.193 63.3333L227.808 64.2564C228.968 64.7398 230.366 64.9583 231.964 64.9583V63.9583V62.9583C230.533 62.9583 229.417 62.7603 228.577 62.4103L228.193 63.3333ZM231.964 63.9583V64.9583C234.268 64.9583 236.261 64.3949 237.872 63.1987L237.276 62.3958L236.68 61.593C235.485 62.4801 233.937 62.9583 231.964 62.9583V63.9583ZM237.276 62.3958L237.867 63.2025C239.612 61.9237 240.38 59.869 240.38 57.3125H239.38H238.38C238.38 59.4783 237.745 60.8124 236.685 61.5892L237.276 62.3958ZM239.38 57.3125H240.38V51.25H239.38H238.38V57.3125H239.38ZM239.38 51.25V50.25H239.005V51.25V52.25H239.38V51.25ZM239.005 51.25L238.111 50.8028C237.773 51.4784 237.263 52.2017 236.559 52.9707L237.297 53.6458L238.035 54.321C238.831 53.4511 239.46 52.5771 239.9 51.6972L239.005 51.25ZM237.297 53.6458L236.553 52.9776C235.927 53.6745 235.069 54.2873 233.946 54.798L234.359 55.7083L234.773 56.6187C236.094 56.0183 237.195 55.256 238.041 54.3141L237.297 53.6458ZM234.359 55.7083L233.942 54.7998C232.904 55.2768 231.537 55.5417 229.797 55.5417V56.5417V57.5417C231.723 57.5417 233.398 57.251 234.777 56.6169L234.359 55.7083ZM229.797 56.5417V55.5417C227.502 55.5417 225.447 55.0056 223.609 53.9461L223.109 54.8125L222.61 55.6789C224.772 56.9249 227.175 57.5417 229.797 57.5417V56.5417ZM223.109 54.8125L223.616 53.9503C221.814 52.8915 220.355 51.3065 219.25 49.1484L218.359 49.6042L217.469 50.0599C218.725 52.513 220.433 54.4002 222.603 55.6747L223.109 54.8125ZM218.359 49.6042L219.253 49.1548C218.176 47.0141 217.609 44.2769 217.609 40.8958H216.609H215.609C215.609 44.487 216.209 47.5553 217.466 50.0535L218.359 49.6042ZM216.609 40.8958H217.609C217.609 37.4878 218.176 34.6806 219.26 32.4347L218.359 32L217.459 31.5652C216.21 34.1527 215.609 37.2761 215.609 40.8958H216.609ZM218.359 32L219.259 32.4369C220.37 30.1502 221.842 28.4637 223.66 27.3271L223.13 26.4791L222.6 25.6312C220.419 26.9946 218.71 28.9887 217.46 31.5631L218.359 32ZM223.13 26.4791L223.664 27.3245C225.498 26.1657 227.541 25.5833 229.818 25.5833V24.5833V23.5833C227.178 23.5833 224.762 24.2648 222.596 25.6338L223.13 26.4791ZM229.818 24.5833V25.5833C231.587 25.5833 232.955 25.8859 233.975 26.4257L234.443 25.5416L234.91 24.6576C233.514 23.9196 231.798 23.5833 229.818 23.5833V24.5833ZM234.443 25.5416L233.987 26.432C235.11 27.006 235.964 27.6814 236.583 28.4431L237.359 27.8125L238.136 27.1819C237.31 26.1658 236.22 25.3273 234.898 24.6513L234.443 25.5416ZM237.359 27.8125L236.588 28.449C237.274 29.2802 237.773 30.0391 238.105 30.726L239.005 30.2917L239.906 29.8574C239.487 28.9887 238.889 28.0947 238.131 27.1759L237.359 27.8125ZM239.005 30.2917V31.2917H239.422V30.2917V29.2917H239.005V30.2917ZM239.422 30.2917H240.422V25H239.422H238.422V30.2917H239.422ZM239.422 25V26H246.859V25V24H239.422V25ZM246.859 25H245.859V57.5208H246.859H247.859V25H246.859ZM246.859 57.5208H245.859C245.859 60.0956 245.247 62.1396 244.093 63.7236L244.901 64.3125L245.709 64.9014C247.166 62.902 247.859 60.4182 247.859 57.5208H246.859ZM244.901 64.3125L244.093 63.7236C242.91 65.3467 241.286 66.5762 239.181 67.4025L239.547 68.3333L239.912 69.2642C242.336 68.3127 244.281 66.8616 245.709 64.9014L244.901 64.3125ZM239.547 68.3333L239.181 67.4025C237.053 68.2382 234.611 68.6667 231.839 68.6667V69.6667V70.6667C234.816 70.6667 237.513 70.2063 239.912 69.2642L239.547 68.3333ZM231.901 50.625V51.625C233.666 51.625 235.234 51.1927 236.553 50.2809L235.984 49.4583L235.416 48.6358C234.485 49.2796 233.33 49.625 231.901 49.625V50.625ZM235.984 49.4583L236.553 50.2809C237.863 49.3754 238.83 48.0885 239.475 46.4756L238.547 46.1042L237.618 45.7328C237.097 47.0365 236.356 47.9857 235.416 48.6358L235.984 49.4583ZM238.547 46.1042L239.475 46.4756C240.118 44.8695 240.422 42.9867 240.422 40.8542H239.422H238.422C238.422 42.8049 238.143 44.4221 237.618 45.7328L238.547 46.1042ZM239.422 40.8542H240.422C240.422 38.7459 240.117 36.8555 239.48 35.2029L238.547 35.5625L237.614 35.922C238.144 37.2972 238.422 38.9346 238.422 40.8542H239.422ZM238.547 35.5625L239.483 35.2104C238.856 33.545 237.903 32.2029 236.601 31.2381L236.005 32.0417L235.41 32.8452C236.358 33.547 237.099 34.5522 237.611 35.9146L238.547 35.5625ZM236.005 32.0417L236.612 31.2464C235.299 30.2455 233.708 29.7708 231.901 29.7708V30.7708V31.7708C233.344 31.7708 234.489 32.1434 235.399 32.8369L236.005 32.0417ZM231.901 30.7708V29.7708C230.04 29.7708 228.409 30.259 227.079 31.294L227.693 32.0833L228.307 32.8727C229.226 32.1576 230.402 31.7708 231.901 31.7708V30.7708ZM227.693 32.0833L227.079 31.294C225.787 32.2985 224.839 33.6622 224.214 35.3382L225.151 35.6875L226.088 36.0367C226.602 34.6572 227.348 33.6181 228.307 32.8727L227.693 32.0833ZM225.151 35.6875L224.215 35.3354C223.596 36.9813 223.297 38.8261 223.297 40.8542H224.297H225.297C225.297 39.0211 225.567 37.4214 226.087 36.0396L225.151 35.6875ZM224.297 40.8542H223.297C223.297 42.9072 223.595 44.7495 224.218 46.3607L225.151 46L226.084 45.6392C225.568 44.3061 225.297 42.7178 225.297 40.8542H224.297ZM225.151 46L224.223 46.3714C224.867 47.9813 225.829 49.281 227.125 50.225L227.714 49.4167L228.302 48.6084C227.348 47.9135 226.602 46.9353 226.08 45.6286L225.151 46ZM227.714 49.4167L227.136 50.2331C228.473 51.1789 230.081 51.625 231.901 51.625V50.625V49.625C230.416 49.625 229.232 49.2656 228.291 48.6002L227.714 49.4167ZM291.443 28.7292V29.7292H292.586L292.434 28.5958L291.443 28.7292ZM283.651 28.7292L282.666 28.9005L282.81 29.7292H283.651V28.7292ZM282.422 25.3333L281.563 25.8461L281.567 25.8513L282.422 25.3333ZM280.193 22.7916L280.808 22.0036L280.808 22.0036L280.193 22.7916ZM277.151 21.2291L276.846 22.1813L276.852 22.1835L276.86 22.1857L277.151 21.2291ZM267.339 22.4375L267.88 23.2785L267.884 23.2755L267.339 22.4375ZM263.13 27.5208L264.04 27.9359L264.041 27.9338L263.13 27.5208ZM263.13 43.9167L262.22 44.3296L262.223 44.3364L263.13 43.9167ZM267.339 48.9583L266.799 49.8004L266.807 49.8052L267.339 48.9583ZM277.068 50.1458L277.355 51.1037L277.363 51.1014L277.068 50.1458ZM280.089 48.625L279.495 47.8205L279.489 47.825L280.089 48.625ZM282.359 46.1667L281.518 45.6259L281.513 45.6345L282.359 46.1667ZM283.651 42.8333L283.656 41.8333L282.823 41.8289L282.669 42.6477L283.651 42.8333ZM291.443 42.875L292.433 43.0174L292.596 41.8811L291.448 41.875L291.443 42.875ZM289.547 48.5833L288.67 48.1035L288.667 48.1088L289.547 48.5833ZM285.776 53.2917L286.431 54.0476L286.435 54.0442L285.776 53.2917ZM280.318 56.4583L280.657 57.3992L280.662 57.3972L280.318 56.4583ZM263.339 54.9792L263.847 54.1178L263.339 54.9792ZM256.38 47.4583L255.492 47.9175L255.492 47.9175L256.38 47.4583ZM256.401 23.875L257.287 24.3387L257.288 24.3372L256.401 23.875ZM263.38 16.3541L262.872 15.4927L262.872 15.4927L263.38 16.3541ZM280.005 14.75L280.316 13.7994L280.316 13.7994L280.005 14.75ZM285.464 17.6875L284.835 18.465L284.839 18.4683L285.464 17.6875ZM289.401 22.3958L288.526 22.8793L288.53 22.887L289.401 22.3958ZM291.443 28.7292V27.7292H283.651V28.7292V29.7292H291.443V28.7292ZM283.651 28.7292L284.636 28.5578C284.395 27.1726 283.947 25.9203 283.277 24.8153L282.422 25.3333L281.567 25.8513C282.092 26.7185 282.462 27.7301 282.666 28.9005L283.651 28.7292ZM282.422 25.3333L283.281 24.8206C282.622 23.7181 281.798 22.7765 280.808 22.0036L280.193 22.7916L279.577 23.5797C280.366 24.1956 281.027 24.9485 281.563 25.8461L282.422 25.3333ZM280.193 22.7916L280.808 22.0036C279.818 21.2295 278.692 20.6536 277.443 20.2726L277.151 21.2291L276.86 22.1857C277.888 22.4991 278.79 22.9649 279.577 23.5797L280.193 22.7916ZM277.151 21.2291L277.457 20.277C276.223 19.881 274.904 19.6875 273.505 19.6875V20.6875V21.6875C274.718 21.6875 275.829 21.855 276.846 22.1813L277.151 21.2291ZM273.505 20.6875V19.6875C271.009 19.6875 268.761 20.3181 266.793 21.5995L267.339 22.4375L267.884 23.2755C269.5 22.2235 271.362 21.6875 273.505 21.6875V20.6875ZM267.339 22.4375L266.798 21.5965C264.821 22.8686 263.3 24.7238 262.22 27.1079L263.13 27.5208L264.041 27.9338C264.988 25.8456 266.273 24.312 267.88 23.2784L267.339 22.4375ZM263.13 27.5208L262.221 27.1057C261.132 29.4923 260.609 32.358 260.609 35.6667H261.609H262.609C262.609 32.5587 263.101 29.9938 264.04 27.9359L263.13 27.5208ZM261.609 35.6667H260.609C260.609 39.0284 261.131 41.9285 262.22 44.3296L263.13 43.9167L264.041 43.5037C263.102 41.4326 262.609 38.8327 262.609 35.6667H261.609ZM263.13 43.9167L262.223 44.3364C263.317 46.7034 264.837 48.5431 266.799 49.8004L267.339 48.9583L267.878 48.1163C266.285 47.0958 264.999 45.5743 264.038 43.4969L263.13 43.9167ZM267.339 48.9583L266.807 49.8052C268.772 51.0392 271.008 51.6458 273.484 51.6458V50.6458V49.6458C271.35 49.6458 269.489 49.1275 267.87 48.1114L267.339 48.9583ZM273.484 50.6458V51.6458C274.85 51.6458 276.142 51.4676 277.355 51.1037L277.068 50.1458L276.78 49.188C275.771 49.4907 274.675 49.6458 273.484 49.6458V50.6458ZM277.068 50.1458L277.363 51.1014C278.591 50.7223 279.702 50.1647 280.689 49.425L280.089 48.625L279.489 47.825C278.697 48.4186 277.795 48.875 276.773 49.1903L277.068 50.1458ZM280.089 48.625L280.683 49.4294C281.688 48.6868 282.53 47.7743 283.206 46.6988L282.359 46.1667L281.513 45.6345C280.967 46.5035 280.295 47.2298 279.495 47.8206L280.089 48.625ZM282.359 46.1667L283.201 46.7074C283.902 45.6166 284.376 44.3826 284.634 43.0189L283.651 42.8333L282.669 42.6477C282.454 43.7841 282.067 44.7723 281.518 45.6259L282.359 46.1667ZM283.651 42.8333L283.646 43.8333L291.437 43.875L291.443 42.875L291.448 41.875L283.656 41.8333L283.651 42.8333ZM291.443 42.875L290.453 42.7326C290.178 44.6434 289.584 46.4318 288.67 48.1035L289.547 48.5833L290.424 49.0631C291.455 47.1793 292.124 45.1621 292.433 43.0174L291.443 42.875ZM289.547 48.5833L288.667 48.1088C287.766 49.7789 286.585 51.2548 285.118 52.5391L285.776 53.2917L286.435 54.0442C288.078 52.6063 289.411 50.9433 290.427 49.0578L289.547 48.5833ZM285.776 53.2917L285.121 52.5358C283.664 53.7977 281.952 54.794 279.974 55.5195L280.318 56.4583L280.662 57.3972C282.85 56.5949 284.777 55.4801 286.431 54.0476L285.776 53.2917ZM280.318 56.4583L279.979 55.5174C278.019 56.223 275.823 56.5833 273.38 56.5833V57.5833V58.5833C276.021 58.5833 278.45 58.1937 280.657 57.3992L280.318 56.4583ZM273.38 57.5833V56.5833C269.791 56.5833 266.622 55.7545 263.847 54.1178L263.339 54.9792L262.831 55.8406C265.944 57.6761 269.47 58.5833 273.38 58.5833V57.5833ZM263.339 54.9792L263.847 54.1178C261.077 52.4848 258.884 50.1235 257.269 46.9991L256.38 47.4583L255.492 47.9175C257.266 51.3487 259.711 54.0013 262.831 55.8406L263.339 54.9792ZM256.38 47.4583L257.269 46.9991C255.663 43.8936 254.839 40.1282 254.839 35.6667H253.839H252.839C252.839 40.3718 253.708 44.4675 255.492 47.9175L256.38 47.4583ZM253.839 35.6667H254.839C254.839 31.1917 255.67 27.4283 257.287 24.3387L256.401 23.875L255.515 23.4113C253.716 26.8494 252.839 30.9472 252.839 35.6667H253.839ZM256.401 23.875L257.288 24.3372C258.917 21.2113 261.118 18.8489 263.888 17.2156L263.38 16.3541L262.872 15.4927C259.754 17.3316 257.302 19.9832 255.514 23.4128L256.401 23.875ZM263.38 16.3541L263.888 17.2156C266.665 15.5782 269.82 14.75 273.38 14.75V13.75V12.75C269.496 12.75 265.984 13.6579 262.872 15.4927L263.38 16.3541ZM273.38 13.75V14.75C275.661 14.75 277.763 15.0699 279.695 15.7006L280.005 14.75L280.316 13.7994C278.164 13.0967 275.85 12.75 273.38 12.75V13.75ZM280.005 14.75L279.695 15.7006C281.626 16.3312 283.337 17.2534 284.835 18.465L285.464 17.6875L286.092 16.9099C284.396 15.5382 282.468 14.5021 280.316 13.7994L280.005 14.75ZM285.464 17.6875L284.839 18.4683C286.33 19.6611 287.559 21.1281 288.526 22.8792L289.401 22.3958L290.277 21.9124C289.188 19.9413 287.792 18.2694 286.088 16.9066L285.464 17.6875ZM289.401 22.3958L288.53 22.887C289.502 24.6102 290.147 26.597 290.452 28.8625L291.443 28.7292L292.434 28.5958C292.1 26.1113 291.384 23.8759 290.272 21.9046L289.401 22.3958ZM301.917 56.5625L301.501 57.4721L301.511 57.4763L301.917 56.5625ZM298.083 53.3125L297.245 53.8578L297.249 53.8635L298.083 53.3125ZM297.688 43.5417L296.817 43.0499L296.817 43.0499L297.688 43.5417ZM300.417 40.7083L299.893 39.8563L299.893 39.8563L300.417 40.7083ZM304.313 39.1042L304.555 40.0743L304.562 40.0726L304.313 39.1042ZM308.833 38.2917L308.73 37.297L308.727 37.2973L308.833 38.2917ZM313.396 37.7708L313.526 38.7624L313.537 38.7608L313.396 37.7708ZM315.938 37.0208L316.472 37.8663L316.477 37.8627L315.938 37.0208ZM315.354 31.6458L316.033 30.9119L316.033 30.9119L315.354 31.6458ZM306.938 31.5625L306.341 30.76L306.336 30.7637L306.938 31.5625ZM304.771 34.4167L304.63 35.4067L305.45 35.5231L305.717 34.7401L304.771 34.4167ZM297.729 33.4167L296.768 33.1419L296.452 34.2454L297.589 34.4067L297.729 33.4167ZM300.479 28.5416L301.194 29.2411L301.198 29.2373L300.479 28.5416ZM305.167 25.5833L305.5 26.5262L305.506 26.5239L305.167 25.5833ZM320.083 26.9166L319.533 27.7515L319.539 27.7557L320.083 26.9166ZM323.125 30.2708L322.245 30.7454L322.249 30.7521L323.125 30.2708ZM324.292 57V58H325.292V57H324.292ZM317.042 57H316.042V58H317.042V57ZM317.042 52.6042H318.042V51.6042H317.042V52.6042ZM316.792 52.6042V51.6042H316.182L315.903 52.1459L316.792 52.6042ZM314.854 55.1042L315.536 55.8356L315.537 55.8352L314.854 55.1042ZM311.75 56.9583L312.098 57.896L312.104 57.8938L311.75 56.9583ZM313.292 51.2083L313.765 52.0892L313.774 52.0845L313.292 51.2083ZM315.854 48.7917L315.001 48.2702L314.996 48.2789L315.854 48.7917ZM316.771 41.75H317.771V39.631L316.135 40.9781L316.771 41.75ZM315.563 42.2917L315.282 41.3319L315.275 41.3338L315.563 42.2917ZM313.688 42.7292L313.865 43.7133L313.865 43.7133L313.688 42.7292ZM309.854 43.3125L309.989 44.3034L309.992 44.303L309.854 43.3125ZM306.833 44.0625L306.47 43.131L306.47 43.131L306.833 44.0625ZM304.729 45.5208L305.495 46.1645L305.502 46.1559L304.729 45.5208ZM305.479 51.0417L304.907 51.8614L304.907 51.8614L305.479 51.0417ZM307.396 57.6458V56.6458C305.488 56.6458 303.803 56.3066 302.323 55.6487L301.917 56.5625L301.511 57.4763C303.28 58.2628 305.248 58.6458 307.396 58.6458V57.6458ZM301.917 56.5625L302.332 55.6529C300.886 54.992 299.756 54.0303 298.918 52.7615L298.083 53.3125L297.249 53.8635C298.3 55.4558 299.726 56.6608 301.501 57.4721L301.917 56.5625ZM298.083 53.3125L298.922 52.7672C298.119 51.5326 297.688 49.969 297.688 48.0208H296.688H295.688C295.688 50.2671 296.187 52.2313 297.245 53.8578L298.083 53.3125ZM296.688 48.0208H297.688C297.688 46.3324 298 45.0222 298.558 44.0334L297.688 43.5417L296.817 43.0499C296.042 44.4222 295.688 46.0981 295.688 48.0208H296.688ZM297.688 43.5417L298.558 44.0334C299.142 43.0001 299.932 42.1797 300.94 41.5603L300.417 40.7083L299.893 39.8563C298.596 40.6536 297.567 41.7221 296.817 43.0499L297.688 43.5417ZM300.417 40.7083L300.94 41.5603C301.998 40.9106 303.2 40.4131 304.555 40.0743L304.313 39.1042L304.07 38.134C302.536 38.5174 301.141 39.0894 299.893 39.8563L300.417 40.7083ZM304.313 39.1042L304.562 40.0726C305.971 39.7101 307.431 39.4477 308.94 39.286L308.833 38.2917L308.727 37.2973C307.125 37.469 305.57 37.7482 304.064 38.1357L304.313 39.1042ZM308.833 38.2917L308.937 39.2863C310.816 39.0914 312.347 38.9168 313.526 38.7624L313.396 37.7708L313.266 36.7793C312.112 36.9304 310.601 37.103 308.73 37.297L308.833 38.2917ZM313.396 37.7708L313.537 38.7608C314.741 38.5888 315.761 38.3154 316.472 37.8663L315.938 37.0208L315.404 36.1753C315.059 36.3929 314.384 36.6195 313.255 36.7809L313.396 37.7708ZM315.938 37.0208L316.477 37.8627C317.345 37.3065 317.75 36.4303 317.75 35.4167H316.75H315.75C315.75 35.8475 315.614 36.0407 315.398 36.1789L315.938 37.0208ZM316.75 35.4167H317.75V35.2917H316.75H315.75V35.4167H316.75ZM316.75 35.2917H317.75C317.75 33.5147 317.215 32.0057 316.033 30.9119L315.354 31.6458L314.675 32.3798C315.354 33.0082 315.75 33.9298 315.75 35.2917H316.75ZM315.354 31.6458L316.033 30.9119C314.858 29.8238 313.239 29.3542 311.333 29.3542V30.3542V31.3542C312.928 31.3542 313.99 31.7456 314.675 32.3798L315.354 31.6458ZM311.333 30.3542V29.3542C309.349 29.3542 307.65 29.7865 306.341 30.76L306.938 31.5625L307.534 32.3649C308.392 31.7274 309.623 31.3542 311.333 31.3542V30.3542ZM306.938 31.5625L306.336 30.7637C305.132 31.6705 304.274 32.7786 303.825 34.0932L304.771 34.4167L305.717 34.7401C306.018 33.8602 306.604 33.0656 307.539 32.3612L306.938 31.5625ZM304.771 34.4167L304.912 33.4266L297.87 32.4266L297.729 33.4167L297.589 34.4067L304.63 35.4067L304.771 34.4167ZM297.729 33.4167L298.691 33.6914C299.206 31.8894 300.045 30.4155 301.194 29.2411L300.479 28.5416L299.765 27.8422C298.358 29.2789 297.364 31.055 296.768 33.1419L297.729 33.4167ZM300.479 28.5416L301.198 29.2373C302.361 28.0363 303.789 27.131 305.5 26.5262L305.167 25.5833L304.834 24.6405C302.851 25.3412 301.153 26.4081 299.761 27.846L300.479 28.5416ZM305.167 25.5833L305.506 26.5239C307.231 25.9016 309.156 25.5833 311.292 25.5833V24.5833V23.5833C308.956 23.5833 306.797 23.9317 304.827 24.6427L305.167 25.5833ZM311.292 24.5833V25.5833C312.755 25.5833 314.212 25.7545 315.666 26.0982L315.896 25.125L316.126 24.1518C314.524 23.7732 312.912 23.5833 311.292 23.5833V24.5833ZM315.896 25.125L315.666 26.0982C317.084 26.4333 318.371 26.9851 319.533 27.7515L320.083 26.9166L320.634 26.0818C319.269 25.1815 317.764 24.5389 316.126 24.1518L315.896 25.125ZM320.083 26.9166L319.539 27.7557C320.653 28.4776 321.555 29.4661 322.245 30.7454L323.125 30.2708L324.005 29.7962C323.167 28.2422 322.042 26.9946 320.627 26.0776L320.083 26.9166ZM323.125 30.2708L322.249 30.7521C322.924 31.9821 323.292 33.5753 323.292 35.5833H324.292H325.292C325.292 33.3413 324.882 31.3929 324.002 29.7896L323.125 30.2708ZM324.292 35.5833H323.292V57H324.292H325.292V35.5833H324.292ZM324.292 57V56H317.042V57V58H324.292V57ZM317.042 57H318.042V52.6042H317.042H316.042V57H317.042ZM317.042 52.6042V51.6042H316.792V52.6042V53.6042H317.042V52.6042ZM316.792 52.6042L315.903 52.1459C315.504 52.9195 314.933 53.6629 314.172 54.3731L314.854 55.1042L315.537 55.8352C316.442 54.9899 317.163 54.0666 317.681 53.0625L316.792 52.6042ZM314.854 55.1042L314.172 54.3727C313.465 55.0325 312.548 55.5879 311.397 56.0229L311.75 56.9583L312.104 57.8938C313.452 57.3843 314.605 56.7036 315.536 55.8356L314.854 55.1042ZM311.75 56.9583L311.402 56.0207C310.303 56.4285 308.974 56.6458 307.396 56.6458V57.6458V58.6458C309.151 58.6458 310.725 58.4048 312.098 57.896L311.75 56.9583ZM309.354 52.1042V53.1042C311 53.1042 312.482 52.7788 313.765 52.0892L313.292 51.2083L312.818 50.3275C311.879 50.8323 310.736 51.1042 309.354 51.1042V52.1042ZM313.292 51.2083L313.774 52.0845C315.026 51.3957 316.017 50.4702 316.713 49.3044L315.854 48.7917L314.996 48.2789C314.498 49.1131 313.78 49.7987 312.81 50.3321L313.292 51.2083ZM315.854 48.7917L316.708 49.3131C317.415 48.1549 317.771 46.884 317.771 45.5208H316.771H315.771C315.771 46.5188 315.515 47.4284 315.001 48.2702L315.854 48.7917ZM316.771 45.5208H317.771V41.75H316.771H315.771V45.5208H316.771ZM316.771 41.75L316.135 40.9781C316.061 41.039 315.82 41.1743 315.282 41.3319L315.563 42.2917L315.844 43.2514C316.444 43.0757 317.008 42.8498 317.407 42.5219L316.771 41.75ZM315.563 42.2917L315.275 41.3338C314.763 41.4876 314.175 41.6253 313.51 41.745L313.688 42.7292L313.865 43.7133C314.589 43.583 315.251 43.429 315.85 43.2495L315.563 42.2917ZM313.688 42.7292L313.51 41.745C312.828 41.8679 312.152 41.9771 311.484 42.0725L311.625 43.0625L311.767 44.0524C312.459 43.9535 313.159 43.8404 313.865 43.7133L313.688 42.7292ZM311.625 43.0625L311.484 42.0725C310.804 42.1696 310.215 42.2528 309.717 42.322L309.854 43.3125L309.992 44.303C310.493 44.2333 311.085 44.1498 311.767 44.0524L311.625 43.0625ZM309.854 43.3125L309.72 42.3216C308.531 42.4831 307.445 42.7502 306.47 43.131L306.833 44.0625L307.197 44.9939C308 44.6804 308.928 44.4475 309.989 44.3034L309.854 43.3125ZM306.833 44.0625L306.47 43.131C305.45 43.5293 304.597 44.1067 303.957 44.8857L304.729 45.5208L305.502 46.1559C305.889 45.6849 306.439 45.2902 307.197 44.9939L306.833 44.0625ZM304.729 45.5208L303.964 44.8772C303.267 45.7055 302.958 46.7414 302.958 47.8958H303.958H304.958C304.958 47.1058 305.163 46.5584 305.495 46.1644L304.729 45.5208ZM303.958 47.8958H302.958C302.958 49.5647 303.589 50.9408 304.907 51.8614L305.479 51.0417L306.052 50.2219C305.342 49.7259 304.958 49.0048 304.958 47.8958H303.958ZM305.479 51.0417L304.907 51.8614C306.129 52.7152 307.635 53.1042 309.354 53.1042V52.1042V51.1042C307.934 51.1042 306.858 50.7848 306.052 50.2219L305.479 51.0417ZM347.854 25H348.854V24H347.854V25ZM347.854 30.8333V31.8333H348.854V30.8333H347.854ZM329.458 30.8333H328.458V31.8333H329.458V30.8333ZM329.458 25V24H328.458V25H329.458ZM334 17.3333V16.3333H333V17.3333H334ZM341.542 17.3333H342.542V16.3333H341.542V17.3333ZM342 49.7083L341.129 50.1997L341.137 50.213L341.145 50.2261L342 49.7083ZM343.25 50.7917L342.896 51.7269L342.896 51.7269L343.25 50.7917ZM346.25 50.9792L346.08 49.9937L346.074 49.9947L346.25 50.9792ZM347.167 50.7917L348.144 50.581L347.923 49.555L346.909 49.8254L347.167 50.7917ZM348.438 56.6875L348.764 57.6329L349.602 57.3438L349.415 56.4768L348.438 56.6875ZM346.708 57.1458L346.492 56.1696L346.488 56.1705L346.708 57.1458ZM344 57.4375L343.974 56.4378L343.971 56.4379L344 57.4375ZM338.896 56.5833L338.507 57.5047L338.514 57.5077L338.896 56.5833ZM335.292 53.625L334.456 54.1737L334.46 54.1797L335.292 53.625ZM334 48.625L335 48.6319V48.625H334ZM347.854 25H346.854V30.8333H347.854H348.854V25H347.854ZM347.854 30.8333V29.8333H329.458V30.8333V31.8333H347.854V30.8333ZM329.458 30.8333H330.458V25H329.458H328.458V30.8333H329.458ZM329.458 25V26H347.854V25V24H329.458V25ZM334 17.3333V18.3333H341.542V17.3333V16.3333H334V17.3333ZM341.542 17.3333H340.542V47.375H341.542H342.542V17.3333H341.542ZM341.542 47.375H340.542C340.542 48.4641 340.702 49.4417 341.129 50.1997L342 49.7083L342.871 49.217C342.688 48.8917 342.542 48.3137 342.542 47.375H341.542ZM342 49.7083L341.145 50.2261C341.565 50.9205 342.148 51.4437 342.896 51.7269L343.25 50.7917L343.604 49.8564C343.325 49.7508 343.074 49.5518 342.856 49.1905L342 49.7083ZM343.25 50.7917L342.896 51.7269C343.538 51.9696 344.229 52.0833 344.958 52.0833V51.0833V50.0833C344.438 50.0833 343.99 50.0026 343.604 49.8564L343.25 50.7917ZM344.958 51.0833V52.0833C345.479 52.0833 345.969 52.0452 346.426 51.9636L346.25 50.9792L346.074 49.9947C345.753 50.052 345.383 50.0833 344.958 50.0833V51.0833ZM346.25 50.9792L346.42 51.9646C346.831 51.8937 347.172 51.8252 347.424 51.7579L347.167 50.7917L346.909 49.8254C346.745 49.8692 346.475 49.9257 346.08 49.9937L346.25 50.9792ZM347.167 50.7917L346.189 51.0024L347.46 56.8982L348.438 56.6875L349.415 56.4768L348.144 50.581L347.167 50.7917ZM348.438 56.6875L348.112 55.7421C347.762 55.8626 347.229 56.0058 346.492 56.1696L346.708 57.1458L346.925 58.122C347.688 57.9525 348.308 57.7902 348.764 57.6329L348.438 56.6875ZM346.708 57.1458L346.488 56.1705C345.836 56.3181 345.003 56.4111 343.974 56.4378L344 57.4375L344.026 58.4372C345.136 58.4083 346.109 58.3069 346.929 58.1211L346.708 57.1458ZM344 57.4375L343.971 56.4379C342.201 56.49 340.643 56.2226 339.278 55.659L338.896 56.5833L338.514 57.5077C340.177 58.1941 342.021 58.4961 344.03 58.4371L344 57.4375ZM338.896 56.5833L339.285 55.662C337.946 55.0972 336.901 54.2363 336.124 53.0703L335.292 53.625L334.46 54.1797C335.46 55.6803 336.818 56.7917 338.507 57.5046L338.896 56.5833ZM335.292 53.625L336.128 53.0763C335.386 51.9454 334.987 50.4848 335 48.6319L334 48.625L333 48.6181C332.985 50.7652 333.448 52.6379 334.456 54.1737L335.292 53.625ZM334 48.625H335V17.3333H334H333V48.625H334ZM372.526 36.125H373.526V35.125H372.526V36.125ZM372.526 42.3333V43.3333H373.526V42.3333H372.526ZM353.318 42.3333H352.318V43.3333H353.318V42.3333ZM353.318 36.125V35.125H352.318V36.125H353.318ZM372.526 36.125H371.526V42.3333H372.526H373.526V36.125H372.526ZM372.526 42.3333V41.3333H353.318V42.3333V43.3333H372.526V42.3333ZM353.318 42.3333H354.318V36.125H353.318H352.318V42.3333H353.318ZM353.318 36.125V37.125H372.526V36.125V35.125H353.318V36.125ZM407.688 14.3333V13.3333H406.688V14.3333H407.688ZM415.417 14.3333H416.417V13.3333H415.417V14.3333ZM413.25 50.2708L412.401 49.7422L412.399 49.7459L413.25 50.2708ZM407.208 55.7083L407.654 56.6037L407.658 56.6018L407.208 55.7083ZM388.979 55.7083L388.53 56.6018L388.534 56.6037L388.979 55.7083ZM382.938 50.2708L383.789 49.7459L383.789 49.7459L382.938 50.2708ZM380.792 14.3333V13.3333H379.792V14.3333H380.792ZM388.521 14.3333H389.521V13.3333H388.521V14.3333ZM389.688 46.3125L388.815 46.8011L388.819 46.8077L389.688 46.3125ZM393.021 49.5833L392.537 50.4583L392.543 50.4619L393.021 49.5833ZM403.188 49.5833L403.665 50.4619L403.668 50.4603L403.188 49.5833ZM406.521 46.3125L407.393 46.8011L407.393 46.8011L406.521 46.3125ZM407.688 14.3333V15.3333H415.417V14.3333V13.3333H407.688V14.3333ZM415.417 14.3333H414.417V42.2083H415.417H416.417V14.3333H415.417ZM415.417 42.2083H414.417C414.417 45.0998 413.736 47.5996 412.401 49.7422L413.25 50.2708L414.099 50.7995C415.654 48.3031 416.417 45.428 416.417 42.2083H415.417ZM413.25 50.2708L412.399 49.7459C411.072 51.897 409.203 53.5867 406.759 54.8149L407.208 55.7083L407.658 56.6018C410.409 55.2188 412.567 53.2836 414.101 50.7958L413.25 50.2708ZM407.208 55.7083L406.763 54.8129C404.329 56.0235 401.452 56.6458 398.104 56.6458V57.6458V58.6458C401.701 58.6458 404.894 57.9765 407.654 56.6037L407.208 55.7083ZM398.104 57.6458V56.6458C394.742 56.6458 391.858 56.0233 389.425 54.8129L388.979 55.7083L388.534 56.6037C391.295 57.9767 394.495 58.6458 398.104 58.6458V57.6458ZM388.979 55.7083L389.428 54.8149C386.985 53.5867 385.116 51.897 383.789 49.7459L382.938 50.2708L382.087 50.7958C383.621 53.2836 385.779 55.2188 388.53 56.6018L388.979 55.7083ZM382.938 50.2708L383.789 49.7459C382.467 47.6028 381.792 45.1016 381.792 42.2083H380.792H379.792C379.792 45.4262 380.547 48.3 382.087 50.7958L382.938 50.2708ZM380.792 42.2083H381.792V14.3333H380.792H379.792V42.2083H380.792ZM380.792 14.3333V15.3333H388.521V14.3333V13.3333H380.792V14.3333ZM388.521 14.3333H387.521V41.5625H388.521H389.521V14.3333H388.521ZM388.521 41.5625H387.521C387.521 43.491 387.944 45.2461 388.815 46.8011L389.688 46.3125L390.56 45.8239C389.875 44.6011 389.521 43.1896 389.521 41.5625H388.521ZM389.688 46.3125L388.819 46.8077C389.704 48.3598 390.949 49.5799 392.537 50.4583L393.021 49.5833L393.505 48.7084C392.231 48.0035 391.255 47.0429 390.556 45.8173L389.688 46.3125ZM393.021 49.5833L392.543 50.4619C394.147 51.334 396.013 51.75 398.104 51.75V50.75V49.75C396.279 49.75 394.756 49.3882 393.499 48.7048L393.021 49.5833ZM398.104 50.75V51.75C400.196 51.75 402.061 51.334 403.665 50.4619L403.188 49.5833L402.71 48.7048C401.453 49.3882 399.929 49.75 398.104 49.75V50.75ZM403.188 49.5833L403.668 50.4603C405.271 49.5818 406.521 48.3595 407.393 46.8011L406.521 46.3125L405.648 45.8239C404.966 47.0433 403.993 48.0016 402.707 48.7064L403.188 49.5833ZM406.521 46.3125L407.393 46.8011C408.264 45.2461 408.688 43.491 408.688 41.5625H407.688H406.688C406.688 43.1896 406.333 44.6011 405.648 45.8239L406.521 46.3125ZM407.688 41.5625H408.688V14.3333H407.688H406.688V41.5625H407.688ZM458.88 14.3333H459.88V13.3333H458.88V14.3333ZM458.88 57V58H459.88V57H458.88ZM452.005 57L451.183 57.5689L451.481 58H452.005V57ZM431.901 27.9375L432.724 27.3686L432.425 26.9375H431.901V27.9375ZM431.547 27.9375V26.9375H430.547V27.9375H431.547ZM431.547 57V58H432.547V57H431.547ZM423.818 57H422.818V58H423.818V57ZM423.818 14.3333V13.3333H422.818V14.3333H423.818ZM430.735 14.3333L431.557 13.7651L431.259 13.3333H430.735V14.3333ZM450.818 43.4167L449.995 43.9849L450.293 44.4167H450.818V43.4167ZM451.193 43.4167V44.4167H452.193V43.4167H451.193ZM451.193 14.3333V13.3333H450.193V14.3333H451.193ZM458.88 14.3333H457.88V57H458.88H459.88V14.3333H458.88ZM458.88 57V56H452.005V57V58H458.88V57ZM452.005 57L452.828 56.4311L432.724 27.3686L431.901 27.9375L431.079 28.5064L451.183 57.5689L452.005 57ZM431.901 27.9375V26.9375H431.547V27.9375V28.9375H431.901V27.9375ZM431.547 27.9375H430.547V57H431.547H432.547V27.9375H431.547ZM431.547 57V56H423.818V57V58H431.547V57ZM423.818 57H424.818V14.3333H423.818H422.818V57H423.818ZM423.818 14.3333V15.3333H430.735V14.3333V13.3333H423.818V14.3333ZM430.735 14.3333L429.912 14.9015L449.995 43.9849L450.818 43.4167L451.641 42.8484L431.557 13.7651L430.735 14.3333ZM450.818 43.4167V44.4167H451.193V43.4167V42.4167H450.818V43.4167ZM451.193 43.4167H452.193V14.3333H451.193H450.193V43.4167H451.193ZM451.193 14.3333V15.3333H458.88V14.3333V13.3333H451.193V14.3333ZM502.844 47.4792L501.959 47.014L501.958 47.0154L502.844 47.4792ZM495.844 54.9792L495.338 54.1167L495.336 54.1178L495.844 54.9792ZM475.781 54.9792L475.271 55.8388L475.275 55.8416L475.781 54.9792ZM468.781 47.4583L467.895 47.9205L467.897 47.925L468.781 47.4583ZM468.781 23.875L467.896 23.4099L467.895 23.4113L468.781 23.875ZM475.781 16.3541L475.275 15.4917L475.274 15.4927L475.781 16.3541ZM495.844 16.3541L495.336 17.2156L495.338 17.2166L495.844 16.3541ZM502.844 23.875L501.957 24.3372L501.96 24.3417L502.844 23.875ZM496.136 27.4791L495.223 27.8874L495.226 27.8942L496.136 27.4791ZM491.969 22.4166L491.425 23.2557L491.43 23.2587L491.969 22.4166ZM479.677 22.4166L480.217 23.2587L480.221 23.2557L479.677 22.4166ZM475.49 27.4791L474.579 27.0662L474.578 27.0688L475.49 27.4791ZM475.49 43.875L474.577 44.2832L474.58 44.2901L475.49 43.875ZM479.677 48.9375L479.133 49.7766L479.138 49.7795L479.677 48.9375ZM491.969 48.9375L492.508 49.7795L492.513 49.7765L491.969 48.9375ZM496.136 43.875L495.225 43.462L495.224 43.4646L496.136 43.875ZM505.427 35.6667H504.427C504.427 40.1403 503.589 43.9103 501.959 47.014L502.844 47.4792L503.729 47.9443C505.543 44.4925 506.427 40.3875 506.427 35.6667H505.427ZM502.844 47.4792L501.958 47.0154C500.33 50.1263 498.123 52.4824 495.338 54.1167L495.844 54.9792L496.35 55.8416C499.482 54.0037 501.941 51.3598 503.73 47.9429L502.844 47.4792ZM495.844 54.9792L495.336 54.1178C492.56 55.7548 489.398 56.5833 485.823 56.5833V57.5833V58.5833C489.721 58.5833 493.239 57.6757 496.352 55.8406L495.844 54.9792ZM485.823 57.5833V56.5833C482.249 56.5833 479.079 55.7548 476.288 54.1167L475.781 54.9792L475.275 55.8416C478.401 57.6757 481.925 58.5833 485.823 58.5833V57.5833ZM475.781 54.9792L476.292 54.1195C473.518 52.4709 471.309 50.1058 469.666 46.9917L468.781 47.4583L467.897 47.925C469.698 51.3387 472.156 53.9874 475.271 55.8388L475.781 54.9792ZM468.781 47.4583L469.668 46.9961C468.05 43.8913 467.219 40.127 467.219 35.6667H466.219H465.219C465.219 40.373 466.096 44.4698 467.895 47.9205L468.781 47.4583ZM466.219 35.6667H467.219C467.219 31.1917 468.05 27.4283 469.667 24.3387L468.781 23.875L467.895 23.4113C466.096 26.8494 465.219 30.9472 465.219 35.6667H466.219ZM468.781 23.875L469.667 24.3401C471.31 21.2127 473.518 18.8494 476.289 17.2156L475.781 16.3541L475.274 15.4927C472.156 17.3311 469.697 19.9817 467.896 23.4099L468.781 23.875ZM475.781 16.3541L476.288 17.2166C479.079 15.5785 482.249 14.75 485.823 14.75V13.75V12.75C481.925 12.75 478.401 13.6576 475.275 15.4917L475.781 16.3541ZM485.823 13.75V14.75C489.398 14.75 492.56 15.5785 495.336 17.2156L495.844 16.3541L496.352 15.4927C493.239 13.6576 489.721 12.75 485.823 12.75V13.75ZM495.844 16.3541L495.338 17.2166C498.122 18.8503 500.329 21.2125 501.957 24.3372L502.844 23.875L503.731 23.4128C501.943 19.982 499.483 17.3302 496.35 15.4917L495.844 16.3541ZM502.844 23.875L501.96 24.3417C503.589 27.4306 504.427 31.1928 504.427 35.6667H505.427H506.427C506.427 30.946 505.543 26.8471 503.728 23.4083L502.844 23.875ZM497.656 35.6667H498.656C498.656 32.3316 498.135 29.4516 497.045 27.0641L496.136 27.4791L495.226 27.8942C496.164 29.9511 496.656 32.5295 496.656 35.6667H497.656ZM496.136 27.4791L497.048 27.0709C495.982 24.6861 494.475 22.8346 492.508 21.5746L491.969 22.4166L491.43 23.2587C493.018 24.2764 494.289 25.8 495.223 27.8874L496.136 27.4791ZM491.969 22.4166L492.513 21.5776C490.558 20.3099 488.317 19.6875 485.823 19.6875V20.6875V21.6875C487.968 21.6875 489.824 22.2179 491.425 23.2557L491.969 22.4166ZM485.823 20.6875V19.6875C483.33 19.6875 481.088 20.3099 479.133 21.5776L479.677 22.4166L480.221 23.2557C481.822 22.2179 483.678 21.6875 485.823 21.6875V20.6875ZM479.677 22.4166L479.138 21.5746C477.172 22.8338 475.659 24.6835 474.579 27.0662L475.49 27.4791L476.401 27.8921C477.348 25.8026 478.627 24.2773 480.217 23.2587L479.677 22.4166ZM475.49 27.4791L474.578 27.0688C473.504 29.455 472.99 32.3332 472.99 35.6667H473.99H474.99C474.99 32.5279 475.475 29.9478 476.402 27.8895L475.49 27.4791ZM473.99 35.6667H472.99C472.99 39.0004 473.504 41.8845 474.577 44.2832L475.49 43.875L476.403 43.4668C475.475 41.3933 474.99 38.8051 474.99 35.6667H473.99ZM475.49 43.875L474.58 44.2901C475.661 46.6585 477.172 48.5051 479.133 49.7765L479.677 48.9375L480.221 48.0985C478.627 47.0644 477.347 45.5359 476.4 43.4599L475.49 43.875ZM479.677 48.9375L479.138 49.7795C481.092 51.0316 483.332 51.6458 485.823 51.6458V50.6458V49.6458C483.675 49.6458 481.818 49.1211 480.217 48.0955L479.677 48.9375ZM485.823 50.6458V51.6458C488.314 51.6458 490.554 51.0316 492.508 49.7795L491.969 48.9375L491.43 48.0955C489.828 49.1211 487.971 49.6458 485.823 49.6458V50.6458ZM491.969 48.9375L492.513 49.7765C494.475 48.5042 495.981 46.6559 497.048 44.2854L496.136 43.875L495.224 43.4646C494.29 45.5385 493.018 47.0652 491.425 48.0985L491.969 48.9375ZM496.136 43.875L497.046 44.2879C498.135 41.8878 498.656 39.002 498.656 35.6667H497.656H496.656C496.656 38.8035 496.164 41.39 495.225 43.462L496.136 43.875ZM531.797 32.5625H532.797V31.5625H531.797V32.5625ZM531.797 38.7708V39.7708H532.797V38.7708H531.797ZM512.589 38.7708H511.589V39.7708H512.589V38.7708ZM512.589 32.5625V31.5625H511.589V32.5625H512.589ZM531.797 32.5625H530.797V38.7708H531.797H532.797V32.5625H531.797ZM531.797 38.7708V37.7708H512.589V38.7708V39.7708H531.797V38.7708ZM512.589 38.7708H513.589V32.5625H512.589H511.589V38.7708H512.589ZM512.589 32.5625V33.5625H531.797V32.5625V31.5625H512.589V32.5625ZM540.063 57H539.063V58H540.063V57ZM540.063 14.3333V13.3333H539.063V14.3333H540.063ZM564.084 15.7916L563.654 16.6945L563.661 16.698L564.084 15.7916ZM568.688 19.7291L567.833 20.2489L567.837 20.254L568.688 19.7291ZM569.229 29.8542L570.107 30.333L570.11 30.3288L569.229 29.8542ZM566.542 32.8333L565.98 32.006L565.98 32.006L566.542 32.8333ZM562.771 34.4792L562.538 33.5068L561.771 33.6908V34.4792H562.771ZM562.771 34.8958H561.771V35.8423L562.716 35.8943L562.771 34.8958ZM567.125 36.2917L566.604 37.1454L566.615 37.1514L567.125 36.2917ZM570.563 39.8333L569.698 40.3362L569.698 40.3362L570.563 39.8333ZM570.292 51.3333L571.145 51.8548L571.147 51.8518L570.292 51.3333ZM565.459 55.4792L565.033 54.5745L565.459 55.4792ZM547.792 50.5417H546.792V51.5417H547.792V50.5417ZM562.167 48.9375L562.821 49.6937L562.822 49.6932L562.167 48.9375ZM563.104 41.3542L562.25 41.8737L562.253 41.8789L563.104 41.3542ZM560.438 38.9375L559.978 39.8254L559.986 39.8298L560.438 38.9375ZM547.792 38.0417V37.0417H546.792V38.0417H547.792ZM547.792 32.4792H546.792V33.4792H547.792V32.4792ZM559.042 31.75L559.456 32.6604L559.465 32.6559L559.042 31.75ZM561.563 29.6458L560.737 29.0825L560.735 29.0853L561.563 29.6458ZM560.75 22.3125L560.07 23.0456L560.075 23.0496L560.75 22.3125ZM547.792 20.7083V19.7083H546.792V20.7083H547.792ZM540.063 57H541.063V14.3333H540.063H539.063V57H540.063ZM540.063 14.3333V15.3333H556.396V14.3333V13.3333H540.063V14.3333ZM556.396 14.3333V15.3333C559.382 15.3333 561.786 15.8051 563.654 16.6945L564.084 15.7916L564.514 14.8888C562.298 13.8338 559.577 13.3333 556.396 13.3333V14.3333ZM564.084 15.7916L563.661 16.698C565.567 17.5868 566.938 18.7769 567.833 20.2489L568.688 19.7291L569.542 19.2094C568.41 17.348 566.711 15.9132 564.506 14.8853L564.084 15.7916ZM568.688 19.7291L567.837 20.254C568.759 21.7506 569.229 23.455 569.229 25.3958H570.229H571.229C571.229 23.1144 570.672 21.0411 569.539 19.2043L568.688 19.7291ZM570.229 25.3958H569.229C569.229 27.0048 568.921 28.3198 568.349 29.3795L569.229 29.8542L570.11 30.3288C570.871 28.9163 571.229 27.2591 571.229 25.3958H570.229ZM569.229 29.8542L568.352 29.3753C567.759 30.4613 566.97 31.3337 565.98 32.006L566.542 32.8333L567.104 33.6606C568.363 32.8052 569.366 31.6914 570.107 30.333L569.229 29.8542ZM566.542 32.8333L565.98 32.006C564.96 32.6988 563.815 33.2002 562.538 33.5068L562.771 34.4792L563.004 35.4515C564.505 35.0915 565.874 34.4957 567.104 33.6606L566.542 32.8333ZM562.771 34.4792H561.771V34.8958H562.771H563.771V34.4792H562.771ZM562.771 34.8958L562.716 35.8943C564.053 35.9679 565.346 36.3777 566.604 37.1454L567.125 36.2917L567.646 35.438C566.127 34.5112 564.517 33.9904 562.826 33.8973L562.771 34.8958ZM567.125 36.2917L566.615 37.1514C567.859 37.8907 568.888 38.9429 569.698 40.3362L570.563 39.8333L571.427 39.3304C570.46 37.6682 569.197 36.3593 567.636 35.4319L567.125 36.2917ZM570.563 39.8333L569.698 40.3362C570.48 41.6803 570.896 43.3453 570.896 45.375H571.896H572.896C572.896 43.0713 572.423 41.0419 571.427 39.3304L570.563 39.8333ZM571.896 45.375H570.896C570.896 47.4139 570.405 49.2184 569.437 50.8149L570.292 51.3333L571.147 51.8518C572.318 49.9205 572.896 47.7527 572.896 45.375H571.896ZM570.292 51.3333L569.439 50.8119C568.487 52.3697 567.038 53.6302 565.033 54.5745L565.459 55.4792L565.885 56.3839C568.185 55.3004 569.958 53.7969 571.145 51.8548L570.292 51.3333ZM565.459 55.4792L565.033 54.5745C563.053 55.5068 560.502 56 557.334 56V57V58C560.693 58 563.559 57.4793 565.885 56.3839L565.459 55.4792ZM557.334 57V56H540.063V57V58H557.334V57ZM547.792 50.5417V51.5417H556.104V50.5417V49.5417H547.792V50.5417ZM556.104 50.5417V51.5417C558.993 51.5417 561.312 50.9995 562.821 49.6937L562.167 48.9375L561.513 48.1812C560.55 49.0144 558.827 49.5417 556.104 49.5417V50.5417ZM562.167 48.9375L562.822 49.6932C564.297 48.4147 565.042 46.7472 565.042 44.7708H564.042H563.042C563.042 46.1834 562.537 47.2937 561.512 48.1818L562.167 48.9375ZM564.042 44.7708H565.042C565.042 43.3334 564.684 42.0108 563.956 40.8294L563.104 41.3542L562.253 41.8789C562.775 42.7253 563.042 43.6804 563.042 44.7708H564.042ZM563.104 41.3542L563.959 40.8346C563.23 39.6356 562.196 38.7063 560.889 38.0452L560.438 38.9375L559.986 39.8298C560.985 40.3354 561.729 41.0172 562.25 41.8737L563.104 41.3542ZM560.438 38.9375L560.898 38.0496C559.574 37.3637 558.034 37.0417 556.313 37.0417V38.0417V39.0417C557.786 39.0417 558.996 39.3169 559.978 39.8254L560.438 38.9375ZM556.313 38.0417V37.0417H547.792V38.0417V39.0417H556.313V38.0417ZM547.792 38.0417H546.792V50.5417H547.792H548.792V38.0417H547.792ZM547.792 32.4792V33.4792H555.438V32.4792V31.4792H547.792V32.4792ZM555.438 32.4792V33.4792C556.895 33.4792 558.24 33.213 559.456 32.6604L559.042 31.75L558.628 30.8396C557.705 31.2592 556.648 31.4792 555.438 31.4792V32.4792ZM559.042 31.75L559.465 32.6559C560.684 32.086 561.67 31.271 562.391 30.2064L561.563 29.6458L560.735 29.0853C560.233 29.8262 559.538 30.414 558.618 30.8441L559.042 31.75ZM561.563 29.6458L562.389 30.2092C563.141 29.1059 563.5 27.8204 563.5 26.3958H562.5H561.5C561.5 27.4712 561.234 28.3524 560.737 29.0825L561.563 29.6458ZM562.5 26.3958H563.5C563.5 24.4768 562.809 22.8435 561.426 21.5753L560.75 22.3125L560.075 23.0496C561.024 23.9204 561.5 25.0093 561.5 26.3958H562.5ZM560.75 22.3125L561.43 21.5794C560.024 20.2749 558.022 19.7083 555.604 19.7083V20.7083V21.7083C557.742 21.7083 559.171 22.2112 560.07 23.0456L560.75 22.3125ZM555.604 20.7083V19.7083H547.792V20.7083V21.7083H555.604V20.7083ZM547.792 20.7083H546.792V32.4792H547.792H548.792V20.7083H547.792ZM584.141 55.625L583.639 56.4897L583.645 56.4932L584.141 55.625ZM578.787 49.9167L577.894 50.3679L577.895 50.3699L578.787 49.9167ZM578.787 32.5208L577.894 32.0696L577.893 32.0716L578.787 32.5208ZM584.078 26.6875L584.601 27.5399L584.605 27.5375L584.078 26.6875ZM597.641 25.5416L597.298 26.481L597.307 26.4842L597.641 25.5416ZM602.308 28.4583L601.608 29.1728L601.612 29.1763L602.308 28.4583ZM605.516 33.5L604.581 33.856L604.582 33.8581L605.516 33.5ZM606.683 43.0625V44.0625H607.683V43.0625H606.683ZM580.453 43.0625H579.453V44.0625H580.453V43.0625ZM580.453 37.9792V36.9792H579.453V37.9792H580.453ZM599.453 37.9792V38.9792H600.463L600.453 37.9695L599.453 37.9792ZM598.516 34.125L597.635 34.5978L597.637 34.6023L598.516 34.125ZM595.953 31.4375L595.437 32.294L595.442 32.2969L595.953 31.4375ZM588.099 31.5833L588.633 32.4291L588.64 32.4245L588.099 31.5833ZM585.37 34.5L584.49 34.0247L584.488 34.0283L585.37 34.5ZM584.391 38.4375L583.391 38.4278V38.4375H584.391ZM585.412 47.6667L584.521 48.1213L584.523 48.1251L585.412 47.6667ZM588.266 50.7083L587.764 51.5736L587.772 51.5778L588.266 50.7083ZM595.537 51.2917L595.862 52.2374L595.875 52.2327L595.537 51.2917ZM597.849 49.8958L597.166 49.1658L597.849 49.8958ZM599.328 47.625L599.44 46.6313L598.662 46.5437L598.39 47.2786L599.328 47.625ZM606.37 48.4167L607.343 48.6489L607.605 47.5492L606.482 47.4229L606.37 48.4167ZM603.828 53.2917L603.085 52.6227L603.085 52.6231L603.828 53.2917ZM599.078 56.5L599.441 57.4321L599.446 57.4299L599.078 56.5ZM592.453 57.625V56.625C589.385 56.625 586.792 55.9884 584.637 54.7568L584.141 55.625L583.645 56.4932C586.156 57.9283 589.105 58.625 592.453 58.625V57.625ZM584.141 55.625L584.643 54.7603C582.495 53.5127 580.843 51.7551 579.678 49.4634L578.787 49.9167L577.895 50.3699C579.23 52.9949 581.148 55.0429 583.639 56.4897L584.141 55.625ZM578.787 49.9167L579.679 49.4654C578.513 47.1593 577.912 44.4102 577.912 41.1875H576.912H575.912C575.912 44.6592 576.56 47.7296 577.894 50.3679L578.787 49.9167ZM576.912 41.1875H577.912C577.912 38.0234 578.512 35.2935 579.68 32.97L578.787 32.5208L577.893 32.0716C576.561 34.7204 575.912 37.7682 575.912 41.1875H576.912ZM578.787 32.5208L579.679 32.972C580.864 30.6279 582.504 28.8264 584.601 27.5399L584.078 26.6875L583.555 25.8351C581.125 27.3263 579.237 29.4137 577.894 32.0696L578.787 32.5208ZM584.078 26.6875L584.605 27.5375C586.689 26.2465 589.16 25.5833 592.058 25.5833V24.5833V23.5833C588.844 23.5833 585.996 24.3229 583.552 25.8374L584.078 26.6875ZM592.058 24.5833V25.5833C593.92 25.5833 595.664 25.8845 597.298 26.481L597.641 25.5416L597.984 24.6023C596.118 23.921 594.14 23.5833 592.058 23.5833V24.5833ZM597.641 25.5416L597.307 26.4842C598.933 27.0603 600.364 27.9542 601.608 29.1728L602.308 28.4583L603.007 27.7439C601.557 26.3235 599.877 25.273 597.975 24.5991L597.641 25.5416ZM602.308 28.4583L601.612 29.1763C602.853 30.3796 603.848 31.9302 604.581 33.856L605.516 33.5L606.45 33.144C605.628 30.9865 604.485 29.176 603.004 27.7403L602.308 28.4583ZM605.516 33.5L604.582 33.8581C605.305 35.7436 605.683 38.0329 605.683 40.75H606.683H607.683C607.683 37.856 607.282 35.3119 606.45 33.1419L605.516 33.5ZM606.683 40.75H605.683V43.0625H606.683H607.683V40.75H606.683ZM606.683 43.0625V42.0625H580.453V43.0625V44.0625H606.683V43.0625ZM580.453 43.0625H581.453V37.9792H580.453H579.453V43.0625H580.453ZM580.453 37.9792V38.9792H599.453V37.9792V36.9792H580.453V37.9792ZM599.453 37.9792L600.453 37.9695C600.438 36.3829 600.093 34.9339 599.395 33.6477L598.516 34.125L597.637 34.6023C598.161 35.5661 598.441 36.6866 598.453 37.9888L599.453 37.9792ZM598.516 34.125L599.397 33.6522C598.701 32.3553 597.72 31.3249 596.465 30.5781L595.953 31.4375L595.442 32.2969C596.381 32.8556 597.108 33.6169 597.635 34.5978L598.516 34.125ZM595.953 31.4375L596.47 30.581C595.209 29.8216 593.762 29.4583 592.162 29.4583V30.4583V31.4583C593.451 31.4583 594.531 31.7478 595.437 32.294L595.953 31.4375ZM592.162 30.4583V29.4583C590.45 29.4583 588.904 29.8771 587.558 30.7421L588.099 31.5833L588.64 32.4245C589.628 31.7895 590.79 31.4583 592.162 31.4583V30.4583ZM588.099 31.5833L587.566 30.7376C586.254 31.565 585.225 32.6645 584.49 34.0247L585.37 34.5L586.25 34.9753C586.821 33.9188 587.611 33.0739 588.633 32.429L588.099 31.5833ZM585.37 34.5L584.488 34.0283C583.769 35.373 583.406 36.8453 583.391 38.4278L584.391 38.4375L585.391 38.4472C585.403 37.1686 585.693 36.0159 586.252 34.9716L585.37 34.5ZM584.391 38.4375H583.391V42.875H584.391H585.391V38.4375H584.391ZM584.391 42.875H583.391C583.391 44.8565 583.753 46.6171 584.521 48.1213L585.412 47.6667L586.302 47.212C585.709 46.0496 585.391 44.6157 585.391 42.875H584.391ZM585.412 47.6667L584.523 48.1251C585.286 49.6052 586.368 50.7644 587.764 51.5735L588.266 50.7083L588.767 49.8431C587.719 49.2356 586.898 48.367 586.3 47.2083L585.412 47.6667ZM588.266 50.7083L587.772 51.5778C589.168 52.371 590.774 52.75 592.558 52.75V51.75V50.75C591.063 50.75 589.808 50.4345 588.76 49.8389L588.266 50.7083ZM592.558 51.75V52.75C593.747 52.75 594.852 52.5843 595.862 52.2373L595.537 51.2917L595.212 50.346C594.443 50.6101 593.562 50.75 592.558 50.75V51.75ZM595.537 51.2917L595.875 52.2327C596.885 51.8698 597.775 51.3353 598.533 50.6259L597.849 49.8958L597.166 49.1658C596.618 49.6786 595.967 50.0746 595.199 50.3506L595.537 51.2917ZM597.849 49.8958L598.533 50.6259C599.308 49.9004 599.883 49.0087 600.266 47.9714L599.328 47.625L598.39 47.2786C598.107 48.0468 597.696 48.669 597.166 49.1658L597.849 49.8958ZM599.328 47.625L599.217 48.6187L606.258 49.4104L606.37 48.4167L606.482 47.4229L599.44 46.6313L599.328 47.625ZM606.37 48.4167L605.397 48.1844C604.991 49.8871 604.221 51.361 603.085 52.6227L603.828 53.2917L604.572 53.9606C605.936 52.4445 606.86 50.6684 607.343 48.6489L606.37 48.4167ZM603.828 53.2917L603.085 52.6231C601.964 53.8697 600.515 54.8561 598.71 55.5701L599.078 56.5L599.446 57.4299C601.503 56.6161 603.22 55.4637 604.572 53.9602L603.828 53.2917ZM599.078 56.5L598.716 55.5679C596.922 56.265 594.84 56.625 592.453 56.625V57.625V58.625C595.039 58.625 597.374 58.235 599.441 57.4321L599.078 56.5ZM620.604 57V58H621.604V57H620.604ZM613.063 57H612.063V58H613.063V57ZM613.063 25V24H612.063V25H613.063ZM620.271 25H621.271V24H620.271V25ZM620.271 30.4375H619.271V31.4375H620.271V30.4375ZM620.646 30.4375V31.4375H621.316L621.571 30.8175L620.646 30.4375ZM624.167 26.1666L623.622 25.328L623.619 25.3302L624.167 26.1666ZM635.959 26L635.459 26.8664L635.462 26.8682L635.959 26ZM639.792 30.1042L638.899 30.5541L638.902 30.5596L639.792 30.1042ZM641.146 36.625L640.146 36.6196V36.625H641.146ZM641.146 57V58H642.146V57H641.146ZM633.604 57H632.604V58H633.604V57ZM631.938 32.7708L631.197 33.4431L631.202 33.4477L631.938 32.7708ZM623.854 31.8333L624.344 32.7052L624.348 32.703L623.854 31.8333ZM621.459 34.3125L620.578 33.8384L620.573 33.8472L621.459 34.3125ZM620.604 38.25H619.604V57H620.604H621.604V38.25H620.604ZM620.604 57V56H613.063V57V58H620.604V57ZM613.063 57H614.063V25H613.063H612.063V57H613.063ZM613.063 25V26H620.271V25V24H613.063V25ZM620.271 25H619.271V30.4375H620.271H621.271V25H620.271ZM620.271 30.4375V31.4375H620.646V30.4375V29.4375H620.271V30.4375ZM620.646 30.4375L621.571 30.8175C622.231 29.2114 623.274 27.9474 624.715 27.0031L624.167 26.1666L623.619 25.3302C621.838 26.497 620.533 28.0802 619.721 30.0575L620.646 30.4375ZM624.167 26.1666L624.712 27.0053C626.14 26.0772 627.947 25.5833 630.188 25.5833V24.5833V23.5833C627.651 23.5833 625.444 24.145 623.622 25.328L624.167 26.1666ZM630.188 24.5833V25.5833C632.25 25.5833 633.996 26.0232 635.459 26.8664L635.959 26L636.458 25.1336C634.643 24.0879 632.542 23.5833 630.188 23.5833V24.5833ZM635.959 26L635.462 26.8682C636.935 27.7099 638.079 28.9279 638.899 30.5541L639.792 30.1042L640.685 29.6542C639.699 27.6971 638.287 26.179 636.455 25.1317L635.959 26ZM639.792 30.1042L638.902 30.5596C639.728 32.1754 640.159 34.1821 640.146 36.6196L641.146 36.625L642.146 36.6304C642.161 33.9568 641.689 31.6163 640.682 29.6487L639.792 30.1042ZM641.146 36.625H640.146V57H641.146H642.146V36.625H641.146ZM641.146 57V56H633.604V57V58H641.146V57ZM633.604 57H634.604V37.7917H633.604H632.604V57H633.604ZM633.604 37.7917H634.604C634.604 35.4802 634.001 33.5373 632.674 32.0939L631.938 32.7708L631.202 33.4477C632.097 34.421 632.604 35.8254 632.604 37.7917H633.604ZM631.938 32.7708L632.678 32.0986C631.355 30.6416 629.543 29.9583 627.375 29.9583V30.9583V31.9583C629.097 31.9583 630.326 32.4833 631.197 33.4431L631.938 32.7708ZM627.375 30.9583V29.9583C625.903 29.9583 624.556 30.2853 623.361 30.9636L623.854 31.8333L624.348 32.703C625.208 32.2147 626.208 31.9583 627.375 31.9583V30.9583ZM623.854 31.8333L623.365 30.9614C622.176 31.6292 621.246 32.5982 620.578 33.8384L621.459 34.3125L622.339 34.7866C622.838 33.8601 623.505 33.1763 624.344 32.7052L623.854 31.8333ZM621.459 34.3125L620.573 33.8472C619.912 35.1065 619.604 36.5874 619.604 38.25H620.604H621.604C621.604 36.8293 621.867 35.6851 622.344 34.7778L621.459 34.3125ZM654.542 55.5208L654.018 56.3723L654.02 56.3737L654.542 55.5208ZM649.271 49.7083L648.374 50.1495L648.377 50.1555L649.271 49.7083ZM649.313 32.5208L650.206 32.97L650.207 32.968L649.313 32.5208ZM654.604 26.6875L655.125 27.5413L655.127 27.5404L654.604 26.6875ZM669.625 26.0208L669.193 26.9227L669.201 26.9262L669.625 26.0208ZM674.438 30.0417L673.614 30.6085L673.616 30.6115L674.438 30.0417ZM676.479 36.0833V37.0833H677.554L677.477 36.0112L676.479 36.0833ZM669.271 36.0833L668.289 36.2692L668.443 37.0833H669.271V36.0833ZM667.188 32.2292L666.495 32.95L666.504 32.959L667.188 32.2292ZM658.771 31.9167L659.346 32.735L659.352 32.7304L658.771 31.9167ZM656.042 35.4583L655.121 35.0684L655.118 35.0755L656.042 35.4583ZM656.042 46.625L655.116 47.002L655.117 47.0049L656.042 46.625ZM658.729 50.2292L658.137 51.035L658.148 51.0429L658.729 50.2292ZM665.813 50.8542L666.243 51.757L666.249 51.7541L665.813 50.8542ZM668.042 49L667.239 48.4044L667.239 48.4044L668.042 49ZM669.271 46.0625V45.0625H668.446L668.289 45.8732L669.271 46.0625ZM676.479 46.0625L677.476 46.142L677.562 45.0625H676.479V46.0625ZM674.479 52.0833L675.313 52.6365L675.315 52.6334L674.479 52.0833ZM669.771 56.1667L670.211 57.0648L670.216 57.0623L669.771 56.1667ZM662.771 57.625V56.625C659.726 56.625 657.171 55.9577 655.064 54.6679L654.542 55.5208L654.02 56.3737C656.496 57.8895 659.428 58.625 662.771 58.625V57.625ZM654.542 55.5208L655.066 54.6694C652.953 53.3676 651.321 51.5726 650.166 49.2611L649.271 49.7083L648.377 50.1555C649.693 52.7885 651.576 54.8685 654.018 56.3723L654.542 55.5208ZM649.271 49.7083L650.169 49.2671C649.024 46.9396 648.438 44.2338 648.438 41.125H647.438H646.438C646.438 44.4884 647.074 47.5048 648.374 50.1495L649.271 49.7083ZM647.438 41.125H648.438C648.438 38.0048 649.037 35.2951 650.206 32.97L649.313 32.5208L648.419 32.0716C647.088 34.7187 646.438 37.7451 646.438 41.125H647.438ZM649.313 32.5208L650.207 32.968C651.377 30.6276 653.015 28.8276 655.125 27.5413L654.604 26.6875L654.084 25.8337C651.638 27.3251 649.748 29.4141 648.418 32.0736L649.313 32.5208ZM654.604 26.6875L655.127 27.5404C657.237 26.2486 659.758 25.5833 662.729 25.5833V24.5833V23.5833C659.451 23.5833 656.555 24.3208 654.082 25.8346L654.604 26.6875ZM662.729 24.5833V25.5833C665.203 25.5833 667.349 26.0391 669.193 26.9226L669.625 26.0208L670.057 25.119C667.901 24.0859 665.451 23.5833 662.729 23.5833V24.5833ZM669.625 26.0208L669.201 26.9262C671.063 27.7996 672.526 29.0269 673.614 30.6085L674.438 30.0417L675.262 29.4748C673.961 27.5842 672.215 26.1309 670.05 25.1154L669.625 26.0208ZM674.438 30.0417L673.616 30.6115C674.698 32.1717 675.327 34.0096 675.482 36.1554L676.479 36.0833L677.477 36.0112C677.299 33.5459 676.566 31.356 675.26 29.4718L674.438 30.0417ZM676.479 36.0833V35.0833H669.271V36.0833V37.0833H676.479V36.0833ZM669.271 36.0833L670.254 35.8974C669.924 34.157 669.131 32.6787 667.871 31.4993L667.188 32.2292L666.504 32.959C667.44 33.8351 668.035 34.9263 668.289 36.2692L669.271 36.0833ZM667.188 32.2292L667.881 31.5083C666.573 30.2511 664.854 29.6667 662.834 29.6667V30.6667V31.6667C664.452 31.6667 665.636 32.1238 666.495 32.95L667.188 32.2292ZM662.834 30.6667V29.6667C661.1 29.6667 659.539 30.1392 658.19 31.1029L658.771 31.9167L659.352 32.7304C660.336 32.0275 661.484 31.6667 662.834 31.6667V30.6667ZM658.771 31.9167L658.196 31.0983C656.852 32.0429 655.834 33.3849 655.121 35.0684L656.042 35.4583L656.963 35.8482C657.556 34.4485 658.357 33.4293 659.346 32.735L658.771 31.9167ZM656.042 35.4583L655.118 35.0755C654.417 36.7682 654.084 38.7523 654.084 41H655.084H656.084C656.084 38.9422 656.389 37.2318 656.966 35.8412L656.042 35.4583ZM655.084 41H654.084C654.084 43.2744 654.416 45.2839 655.116 47.002L656.042 46.625L656.968 46.248C656.39 44.8272 656.084 43.0867 656.084 41H655.084ZM656.042 46.625L655.117 47.0049C655.813 48.7001 656.812 50.0612 658.137 51.0349L658.729 50.2292L659.322 49.4234C658.341 48.7027 657.549 47.661 656.967 46.2451L656.042 46.625ZM658.729 50.2292L658.148 51.0429C659.501 52.0089 661.077 52.4792 662.834 52.4792V51.4792V50.4792C661.452 50.4792 660.292 50.1161 659.311 49.4154L658.729 50.2292ZM662.834 51.4792V52.4792C664.072 52.4792 665.215 52.2464 666.243 51.757L665.813 50.8542L665.383 49.9513C664.661 50.2953 663.818 50.4792 662.834 50.4792V51.4792ZM665.813 50.8542L666.249 51.7541C667.285 51.2521 668.154 50.5287 668.845 49.5956L668.042 49L667.239 48.4044C666.736 49.0824 666.118 49.5951 665.377 49.9542L665.813 50.8542ZM668.042 49L668.845 49.5956C669.546 48.6508 670.007 47.5267 670.253 46.2518L669.271 46.0625L668.289 45.8732C668.091 46.9039 667.733 47.7381 667.239 48.4044L668.042 49ZM669.271 46.0625V47.0625H676.479V46.0625V45.0625H669.271V46.0625ZM676.479 46.0625L675.483 45.983C675.314 48.0933 674.697 49.9356 673.644 51.5332L674.479 52.0833L675.315 52.6334C676.568 50.7311 677.284 48.5594 677.476 46.142L676.479 46.0625ZM674.479 52.0833L673.646 51.5302C672.597 53.1106 671.166 54.3578 669.326 55.271L669.771 56.1667L670.216 57.0623C672.349 56.0033 674.056 54.5283 675.313 52.6365L674.479 52.0833ZM669.771 56.1667L669.331 55.2685C667.508 56.161 665.331 56.625 662.771 56.625V57.625V58.625C665.572 58.625 668.062 58.1168 670.211 57.0648L669.771 56.1667ZM690.214 57V58H691.214V57H690.214ZM682.672 57H681.672V58H682.672V57ZM682.672 14.3333V13.3333H681.672V14.3333H682.672ZM690.047 14.3333H691.047V13.3333H690.047V14.3333ZM690.047 30.4375H689.047V31.4375H690.047V30.4375ZM690.422 30.4375V31.4375H691.09L691.346 30.8211L690.422 30.4375ZM693.901 26.1666L694.454 26.9998L694.456 26.9987L693.901 26.1666ZM705.756 25.9791L706.246 25.1078L706.246 25.1078L705.756 25.9791ZM709.589 30.0625L708.696 30.5125L708.699 30.518L709.589 30.0625ZM710.964 57V58H711.964V57H710.964ZM703.422 57H702.422V58H703.422V57ZM701.756 32.7708L701.015 33.4431L701.023 33.4519L701.756 32.7708ZM693.547 31.8333L694.027 32.7108L694.031 32.7086L693.547 31.8333ZM691.089 34.3125L690.213 33.8297L690.208 33.8384L691.089 34.3125ZM690.214 38.25H689.214V57H690.214H691.214V38.25H690.214ZM690.214 57V56H682.672V57V58H690.214V57ZM682.672 57H683.672V14.3333H682.672H681.672V57H682.672ZM682.672 14.3333V15.3333H690.047V14.3333V13.3333H682.672V14.3333ZM690.047 14.3333H689.047V30.4375H690.047H691.047V14.3333H690.047ZM690.047 30.4375V31.4375H690.422V30.4375V29.4375H690.047V30.4375ZM690.422 30.4375L691.346 30.8211C692.023 29.1915 693.057 27.9274 694.454 26.9998L693.901 26.1666L693.348 25.3335C691.607 26.4892 690.322 28.0724 689.499 30.0539L690.422 30.4375ZM693.901 26.1666L694.456 26.9987C695.834 26.08 697.64 25.5833 699.943 25.5833V24.5833V23.5833C697.357 23.5833 695.135 24.1422 693.347 25.3346L693.901 26.1666ZM699.943 24.5833V25.5833C702.023 25.5833 703.786 26.0177 705.265 26.8505L705.756 25.9791L706.246 25.1078C704.42 24.0794 702.307 23.5833 699.943 23.5833V24.5833ZM705.756 25.9791L705.265 26.8505C706.734 27.6779 707.877 28.8873 708.696 30.5125L709.589 30.0625L710.482 29.6125C709.495 27.6543 708.082 26.1415 706.246 25.1078L705.756 25.9791ZM709.589 30.0625L708.699 30.518C709.526 32.1344 709.964 34.1565 709.964 36.625H710.964H711.964C711.964 33.9269 711.485 31.5739 710.479 29.607L709.589 30.0625ZM710.964 36.625H709.964V57H710.964H711.964V36.625H710.964ZM710.964 57V56H703.422V57V58H710.964V57ZM703.422 57H704.422V37.7917H703.422H702.422V57H703.422ZM703.422 37.7917H704.422C704.422 35.469 703.82 33.522 702.488 32.0897L701.756 32.7708L701.023 33.4519C701.913 34.4085 702.422 35.8087 702.422 37.7917H703.422ZM701.756 32.7708L702.496 32.0986C701.169 30.6371 699.332 29.9583 697.131 29.9583V30.9583V31.9583C698.901 31.9583 700.148 32.4879 701.015 33.4431L701.756 32.7708ZM697.131 30.9583V29.9583C695.646 29.9583 694.282 30.2845 693.064 30.9581L693.547 31.8333L694.031 32.7086C694.923 32.2155 695.948 31.9583 697.131 31.9583V30.9583ZM693.547 31.8333L693.068 30.9559C691.852 31.6205 690.898 32.5872 690.213 33.8297L691.089 34.3125L691.965 34.7953C692.474 33.8711 693.159 33.185 694.027 32.7108L693.547 31.8333ZM691.089 34.3125L690.208 33.8384C689.529 35.0998 689.214 36.5839 689.214 38.25H690.214H691.214C691.214 36.8327 691.482 35.6919 691.969 34.7866L691.089 34.3125Z" fill="white" mask="url(#path-4-outside-1_4_59)"/>
</svg>
